<svg width="1182" height="830" viewBox="0 0 1182 830" fill="none" xmlns="http://www.w3.org/2000/svg">
<path d="M903.54 318.501C903.54 290.082 880.419 266.961 852 266.961C841.288 266.961 831.017 270.217 822.296 276.376C820.907 277.358 820.577 279.28 821.558 280.669C822.54 282.059 824.461 282.389 825.851 281.408C833.526 275.987 842.568 273.121 852 273.121C877.023 273.121 897.38 293.479 897.38 318.501C897.38 336.399 886.812 352.676 870.458 359.968C869.348 360.463 868.632 361.565 868.632 362.781V372.094H864.961V330.349H870.468C874.326 330.349 877.713 328.021 879.095 324.419C880.477 320.817 879.517 316.821 876.649 314.241L874.222 312.056C871.471 309.58 867.662 308.977 864.281 310.483C860.9 311.989 858.8 315.223 858.8 318.924V324.189H845.199V318.924C845.199 315.223 843.099 311.989 839.718 310.483C836.337 308.977 832.529 309.58 829.777 312.056L827.35 314.241C824.483 316.822 823.523 320.817 824.905 324.419C826.287 328.021 829.673 330.349 833.532 330.349H839.039V372.095H835.367V362.781C835.367 361.565 834.652 360.463 833.541 359.968C817.187 352.677 806.62 336.4 806.62 318.501C806.62 308.023 810.087 298.183 816.649 290.044C817.716 288.72 817.508 286.78 816.184 285.713C814.86 284.646 812.921 284.854 811.853 286.178C804.506 295.293 800.46 306.772 800.46 318.501C800.46 338.155 811.677 356.086 829.207 364.737V372.095H822.431C820.73 372.095 819.351 373.473 819.351 375.175V408.439C819.351 420.328 829.023 430 840.911 430H863.088C874.977 430 884.648 420.328 884.648 408.439V399.815C884.648 398.114 883.27 396.735 881.568 396.735C879.867 396.735 878.488 398.114 878.488 399.815V405.359H825.511V394.682H870.07C871.771 394.682 873.15 393.303 873.15 391.602C873.15 389.9 871.771 388.521 870.07 388.521H825.511V378.255H878.489V383.388C878.489 385.089 879.868 386.468 881.569 386.468C883.27 386.468 884.649 385.089 884.649 383.388V375.175C884.649 373.473 883.27 372.095 881.569 372.095H874.793V364.737C892.323 356.086 903.54 338.154 903.54 318.501ZM864.961 318.923C864.961 317.068 866.359 316.301 866.787 316.11C867.216 315.919 868.722 315.393 870.101 316.634L872.528 318.818C873.988 320.132 873.521 321.747 873.343 322.211C873.166 322.675 872.432 324.188 870.468 324.188H864.961V318.923ZM839.039 324.189H833.532C830.755 324.189 829.396 320.687 831.471 318.819L833.898 316.634C835.861 314.868 839.039 316.309 839.039 318.924V324.189ZM878.179 411.52C876.748 418.541 870.525 423.84 863.088 423.84H840.912C833.474 423.84 827.252 418.541 825.821 411.52H878.179ZM858.8 372.095H845.2V330.349H858.8V372.095Z" fill="#03045E" fill-opacity="0.15"/>
<path d="M852 230C850.299 230 848.92 231.379 848.92 233.08V250.329C848.92 252.03 850.299 253.409 852 253.409C853.701 253.409 855.08 252.03 855.08 250.329V233.08C855.08 231.379 853.701 230 852 230Z" fill="#03045E" fill-opacity="0.15"/>
<path d="M820.171 258.032L811.546 243.095C810.696 241.622 808.812 241.116 807.339 241.967C805.866 242.818 805.361 244.702 806.212 246.175L814.836 261.112C815.741 262.68 817.87 263.126 819.331 262.052C820.579 261.134 820.944 259.372 820.171 258.032Z" fill="#03045E" fill-opacity="0.15"/>
<path d="M793.79 282.158L778.852 273.534C777.379 272.683 775.495 273.188 774.645 274.661C773.795 276.134 774.299 278.018 775.772 278.869L790.71 287.493C792.281 288.4 794.346 287.716 795.072 286.059C795.694 284.641 795.13 282.931 793.79 282.158Z" fill="#03045E" fill-opacity="0.15"/>
<path d="M783.006 316.242H765.758C764.057 316.242 762.678 317.621 762.678 319.322C762.678 321.023 764.057 322.402 765.758 322.402H783.006C784.707 322.402 786.086 321.023 786.086 319.322C786.086 317.621 784.707 316.242 783.006 316.242Z" fill="#03045E" fill-opacity="0.15"/>
<path d="M794.917 352.28C794.067 350.807 792.183 350.302 790.71 351.152L775.772 359.776C774.432 360.55 773.868 362.259 774.49 363.677C775.216 365.335 777.281 366.019 778.852 365.111L793.79 356.487C795.263 355.637 795.768 353.753 794.917 352.28Z" fill="#03045E" fill-opacity="0.15"/>
<path d="M928.228 359.776L913.29 351.152C911.817 350.301 909.933 350.806 909.083 352.279C908.232 353.752 908.737 355.636 910.21 356.487L925.148 365.111C926.719 366.018 928.784 365.334 929.51 363.677C930.132 362.259 929.568 360.55 928.228 359.776Z" fill="#03045E" fill-opacity="0.15"/>
<path d="M938.242 316.242H920.994C919.293 316.242 917.914 317.621 917.914 319.322C917.914 321.023 919.293 322.402 920.994 322.402H938.242C939.943 322.402 941.322 321.023 941.322 319.322C941.322 317.621 939.943 316.242 938.242 316.242Z" fill="#03045E" fill-opacity="0.15"/>
<path d="M929.355 274.661C928.505 273.188 926.621 272.684 925.148 273.534L910.21 282.158C908.737 283.009 908.232 284.893 909.083 286.366C909.653 287.354 910.689 287.906 911.753 287.906C912.275 287.906 912.805 287.773 913.29 287.493L928.228 278.869C929.701 278.018 930.206 276.134 929.355 274.661Z" fill="#03045E" fill-opacity="0.15"/>
<path d="M896.661 241.967C895.188 241.116 893.304 241.622 892.454 243.095L883.83 258.032C882.979 259.505 883.484 261.389 884.957 262.239C886.412 263.08 888.326 262.565 889.164 261.112L897.789 246.175C898.639 244.702 898.134 242.818 896.661 241.967Z" fill="#03045E" fill-opacity="0.15"/>
<g clip-path="url(#clip0_17_2983)">
<path d="M500 369.599V348.499C500 343.426 495.663 339.299 490.332 339.299H486.206C485.139 339.299 484.273 340.122 484.273 341.139C484.273 342.155 485.139 342.979 486.206 342.979H490.332C493.53 342.979 496.133 345.455 496.133 348.499V369.599C496.133 372.643 493.53 375.119 490.332 375.119H450.498V342.979H475.894C476.961 342.979 477.827 342.155 477.827 341.139C477.827 340.123 476.961 339.299 475.894 339.299H427.423C418.658 339.299 411.39 345.497 410.196 353.529H408.176C408.358 352.684 407.893 351.807 407.025 351.462C406.039 351.071 404.908 351.515 404.497 352.453L404.025 353.529H400.957C401.139 352.684 400.675 351.807 399.806 351.462C398.82 351.071 397.688 351.515 397.278 352.453L396.807 353.529H393.738C393.92 352.684 393.456 351.807 392.587 351.462C391.601 351.071 390.47 351.515 390.059 352.453L389.588 353.529H383.078C382.659 353.529 382.252 353.658 381.918 353.897L376.761 357.577C375.746 358.301 375.746 359.797 376.761 360.521L381.917 364.201C382.252 364.44 382.659 364.569 383.077 364.569H384.793C384.611 365.415 385.075 366.292 385.943 366.636C386.917 367.022 388.067 366.571 388.472 365.645L388.943 364.569H392.012C391.83 365.415 392.294 366.292 393.163 366.636C394.136 367.022 395.286 366.571 395.691 365.645L396.162 364.569H399.231C399.049 365.415 399.514 366.292 400.382 366.636C401.356 367.022 402.505 366.571 402.91 365.645L403.381 364.569H410.196C411.391 372.601 418.659 378.799 427.423 378.799H446.631V395.606C446.631 396.622 447.497 397.446 448.565 397.446H457.723L458.398 401.534C458.566 402.551 459.618 403.252 460.68 403.054C461.687 402.868 462.378 401.927 462.218 400.963L458.558 378.799H486.098L487.516 387.387H474.769C473.606 387.387 472.684 388.403 472.856 389.498L473.856 395.877C473.997 396.779 474.81 397.446 475.768 397.446H489.177L489.704 400.636H476.845C475.682 400.636 474.761 401.652 474.932 402.747L475.932 409.126C476.073 410.028 476.887 410.695 477.844 410.695H491.365L491.891 413.884H478.921C477.758 413.884 476.836 414.9 477.008 415.996L478.008 422.375C478.149 423.277 478.962 423.944 479.92 423.944H493.552L493.998 426.645C494.262 428.241 493.78 429.861 492.676 431.089C491.573 432.318 489.966 433.022 488.267 433.022H472.473C469.599 433.022 467.188 431.061 466.742 428.359L464.163 412.741C463.997 411.737 463.008 411.051 461.953 411.208C460.898 411.366 460.177 412.308 460.343 413.312L462.922 428.93C463.666 433.433 467.683 436.702 472.473 436.702H488.268C491.099 436.702 493.777 435.528 495.616 433.481C497.456 431.434 498.259 428.734 497.82 426.074L490.013 378.8H490.333C495.663 378.799 500 374.672 500 369.599ZM386.365 360.889H383.722L381.144 359.049L383.722 357.209H387.976L386.365 360.889ZM393.584 360.889H390.555L392.166 357.209H395.196L393.584 360.889ZM400.803 360.889H397.773L399.385 357.209H402.414L400.803 360.889ZM410.02 360.889H404.993L406.604 357.209H410.02V360.889H410.02ZM437.349 348.376H428.454C427.387 348.376 426.521 349.2 426.521 350.217C426.521 351.233 427.387 352.057 428.454 352.057H437.349V357.209H425.876C424.808 357.209 423.942 358.033 423.942 359.049C423.942 360.065 424.808 360.889 425.876 360.889H437.349V366.041H428.454C427.387 366.041 426.521 366.865 426.521 367.881C426.521 368.898 427.387 369.722 428.454 369.722H437.349V375.119H427.423C419.959 375.119 413.888 369.341 413.888 362.238V355.86C413.888 348.757 419.959 342.979 427.423 342.979H437.349V348.376ZM446.631 375.119H441.216V342.979H446.631V375.119ZM450.498 393.766V378.799H454.643L457.115 393.766H450.498ZM477.434 393.766L477.012 391.067H488.123L488.569 393.766H477.434ZM492.945 420.263H481.587L481.164 417.564H492.499L492.945 420.263ZM490.311 404.316L490.757 407.014H479.511L479.088 404.316H490.311Z" fill="#03045E" fill-opacity="0.15" stroke="#03045E" stroke-opacity="0.15" stroke-width="0.390625"/>
<path d="M443.924 347.395C442.856 347.395 441.99 348.219 441.99 349.235V351.198C441.99 352.214 442.856 353.038 443.924 353.038C444.991 353.038 445.857 352.214 445.857 351.198V349.235C445.857 348.219 444.991 347.395 443.924 347.395Z" fill="#03045E" fill-opacity="0.15" stroke="#03045E" stroke-opacity="0.15" stroke-width="0.390625"/>
<path d="M443.924 356.228C442.856 356.228 441.99 357.052 441.99 358.068V360.03C441.99 361.046 442.856 361.87 443.924 361.87C444.991 361.87 445.857 361.046 445.857 360.03V358.068C445.857 357.052 444.991 356.228 443.924 356.228Z" fill="#03045E" fill-opacity="0.15" stroke="#03045E" stroke-opacity="0.15" stroke-width="0.390625"/>
<path d="M443.924 365.06C442.856 365.06 441.99 365.884 441.99 366.9V368.863C441.99 369.879 442.856 370.703 443.924 370.703C444.991 370.703 445.857 369.879 445.857 368.863V366.9C445.857 365.884 444.991 365.06 443.924 365.06Z" fill="#03045E" fill-opacity="0.15" stroke="#03045E" stroke-opacity="0.15" stroke-width="0.390625"/>
</g>
<path d="M123.074 140.515H121.404V134.879C121.404 133.841 120.541 133 119.477 133H104.577C103.512 133 102.65 133.841 102.65 134.879V140.515H100.467C99.4022 140.515 98.5399 141.357 98.5399 142.394V148.407C98.5399 149.444 99.4024 150.286 100.467 150.286H102.65V155.922C102.65 156.96 103.513 157.801 104.577 157.801C105.641 157.801 106.504 156.96 106.504 155.922V150.286H117.55V177.467C117.55 188.863 108.042 198.134 96.3561 198.134H81.8412V186.861H96.8698C102.182 186.861 106.504 182.647 106.504 177.467V165.943C106.504 164.905 105.641 164.064 104.577 164.064C103.513 164.064 102.65 164.905 102.65 165.943V177.467C102.65 180.575 100.057 183.103 96.8701 183.103H81.8414V180.473C81.8414 179.435 80.9789 178.594 79.9147 178.594H73.7491C72.6847 178.594 71.8224 179.435 71.8224 180.473V183.103H67.4543V169.826H69.5218C70.363 172.714 73.0899 174.836 76.3173 174.836C80.2126 174.836 83.382 171.746 83.382 167.947C83.382 164.148 80.2126 161.058 76.3173 161.058C73.0899 161.058 70.3627 163.18 69.5218 166.068H61.5331C60.6919 163.18 57.965 161.058 54.7376 161.058C50.8423 161.058 47.6728 164.148 47.6728 167.947C47.6728 171.746 50.8423 174.836 54.7376 174.836C57.965 174.836 60.6922 172.714 61.5331 169.826H63.6006V183.103H59.2332V180.473C59.2332 179.435 58.3707 178.594 57.3065 178.594H51.1409C50.0765 178.594 49.2142 179.435 49.2142 180.473V183.103H33.1577C19.3461 183.103 8.10979 194.06 8.10979 207.529V216.046C8.10979 217.084 8.97231 217.925 10.0365 217.925C11.1009 217.925 11.9632 217.084 11.9632 216.046V207.529C11.9632 196.132 21.4711 186.861 33.1575 186.861H49.214V198.134H32.6437C27.3314 198.134 23.0098 202.349 23.0098 207.529V236.213H11.9637V226.067C11.9637 225.029 11.1011 224.188 10.037 224.188C8.97256 224.188 8.11027 225.03 8.11027 226.067V236.213H5.92669C4.86228 236.213 4 237.055 4 238.092V244.104C4 245.142 4.86253 245.983 5.92669 245.983H8.11027V251.62C8.11027 252.658 8.9728 253.499 10.037 253.499H24.9372C26.0016 253.499 26.8639 252.657 26.8639 251.62V245.983H28.5337C29.5981 245.983 30.4604 245.142 30.4604 244.104V238.092C30.4604 237.054 29.5978 236.213 28.5337 236.213H26.8639V207.529C26.8639 204.421 29.457 201.892 32.6442 201.892H49.2144V204.523C49.2144 205.56 50.077 206.401 51.1411 206.401H57.3068C58.3712 206.401 59.2335 205.56 59.2335 204.523V201.892H71.8217V204.523C71.8217 205.56 72.6842 206.401 73.7484 206.401H79.914C80.9784 206.401 81.8407 205.56 81.8407 204.523V201.892H96.3556C110.167 201.892 121.404 190.935 121.404 177.467V150.286H123.073C124.138 150.286 125 149.444 125 148.407V142.395C125 141.357 124.138 140.515 123.074 140.515ZM76.3175 164.816C78.0884 164.816 79.5289 166.22 79.5289 167.947C79.5289 169.674 78.0884 171.079 76.3175 171.079C74.5467 171.079 73.1064 169.674 73.1064 167.947C73.1064 166.221 74.5467 164.816 76.3175 164.816ZM54.7376 171.079C52.9668 171.079 51.5262 169.674 51.5262 167.947C51.5262 166.221 52.9668 164.816 54.7376 164.816C56.5085 164.816 57.9488 166.22 57.9488 167.947C57.9488 169.674 56.5085 171.079 54.7376 171.079ZM23.0102 249.741H11.9637V245.983H23.0105L23.0102 249.741ZM26.607 242.226H7.85314V239.971H26.607V242.226ZM55.3801 202.644H53.0681V182.352H55.3801V202.644ZM71.8217 198.135H59.2335V186.861H71.8217V198.135ZM77.9873 202.644H75.6753V182.352H77.9873V202.644ZM106.504 136.758H117.55V140.516H106.504V136.758ZM121.147 146.528H102.393V144.273H121.147V146.528Z" fill="#03045E" fill-opacity="0.15"/>
<path d="M75.5599 221.109C75.0212 220.214 73.8407 219.914 72.9232 220.439C72.0051 220.964 71.6978 222.115 72.2361 223.01C77.6873 232.071 78.5011 236.035 78.5011 237.591C78.5011 244.567 72.6813 250.242 65.5276 250.242C58.3739 250.242 52.5541 244.567 52.5541 237.591C52.5541 232.188 60.8422 219.39 65.5232 212.794C66.2074 213.76 67.0723 215.003 68.0272 216.422C68.6108 217.29 69.8056 217.532 70.695 216.963C71.5849 216.394 71.8331 215.229 71.2495 214.361C68.9212 210.9 67.1608 208.529 67.0871 208.43C66.3305 207.413 64.7244 207.413 63.9676 208.43C62.4051 210.531 48.7004 229.199 48.7004 237.591C48.7004 246.639 56.2489 254 65.5276 254C74.8062 254 82.3547 246.639 82.3547 237.591C82.3547 234.1 80.1321 228.708 75.5599 221.109Z" fill="#03045E" fill-opacity="0.15"/>
<path d="M70.242 224.151C69.7033 223.256 68.523 222.956 67.6053 223.481C66.6872 224.006 66.3799 225.158 66.9182 226.053C72.144 234.739 72.3304 237.501 72.3355 237.591C72.3355 241.251 69.2814 244.229 65.5276 244.229C64.4632 244.229 63.6009 245.071 63.6009 246.108C63.6009 247.146 64.4634 247.987 65.5276 247.987C71.4063 247.987 76.1891 243.323 76.1891 237.591C76.1891 236.757 75.7604 233.324 70.242 224.151Z" fill="#03045E" fill-opacity="0.15"/>
<g clip-path="url(#clip1_17_2983)">
<path d="M196.052 335.351C193.995 334.263 191.392 334.438 189.511 335.796C189.271 335.969 189.044 336.16 188.833 336.365C186.922 338.222 186.499 341.179 187.835 343.466C189.196 345.797 192.082 346.962 194.742 346.262C197.191 345.617 199.003 343.489 199.208 341.035C199.401 338.723 198.151 336.461 196.052 335.351ZM195.518 342.863C194.598 343.758 193.188 344.055 191.967 343.615C190.622 343.131 189.729 341.829 189.778 340.438C189.829 338.971 190.923 337.685 192.398 337.363C193.839 337.049 195.364 337.708 196.081 338.965C196.8 340.225 196.567 341.844 195.518 342.863Z" fill="#03045E" fill-opacity="0.15" stroke="#03045E" stroke-opacity="0.15" stroke-width="0.390626"/>
<path d="M202.204 334.491L184.268 317.059L190.761 310.749C193.419 308.166 193.419 303.961 190.761 301.377L175.603 286.646C175.07 286.128 174.207 286.128 173.675 286.646C173.142 287.163 173.142 288.002 173.675 288.52L179.125 293.817L170.768 301.939L164.532 295.879C163.999 295.362 163.136 295.362 162.603 295.879C162.071 296.397 162.071 297.236 162.603 297.754L168.839 303.814L163.053 309.437L159.903 306.375C159.37 305.858 158.507 305.858 157.974 306.375C157.442 306.893 157.442 307.732 157.974 308.25L161.124 311.311L154.053 318.184L149.617 313.873C149.084 313.355 148.221 313.355 147.688 313.873C147.156 314.39 147.156 315.229 147.688 315.747L152.124 320.058L145.052 326.931L123.838 306.313L126.281 303.939L134.188 311.624C135.475 312.874 137.525 313.148 139.107 312.269C140.543 311.471 141.353 309.871 141.134 308.28C141.016 307.421 140.605 306.614 139.974 306.001L137.917 304.002C137.386 303.485 137.386 302.644 137.917 302.127C138.449 301.61 139.314 301.61 139.846 302.127L147.818 309.874C149.025 311.048 150.913 311.371 152.459 310.66C154.01 309.947 154.949 308.325 154.782 306.668C154.69 305.757 154.269 304.898 153.603 304.251L144.346 295.255C143.791 294.715 143.829 293.806 144.424 293.31C144.957 292.867 145.779 292.898 146.275 293.381L148.332 295.38C149.105 296.131 150.132 296.544 151.225 296.544C152.318 296.544 153.345 296.131 154.118 295.38C155.713 293.83 155.713 291.307 154.118 289.757L151.803 287.507C151.271 286.99 151.271 286.15 151.803 285.633C152.335 285.116 153.2 285.116 153.732 285.633L159.132 290.881C160.727 292.431 163.322 292.431 164.918 290.881C166.513 289.331 166.513 286.808 164.918 285.258L155.21 275.824L157.91 273.2L167.856 282.865C168.388 283.383 169.252 283.383 169.784 282.865C170.317 282.347 170.317 281.508 169.784 280.991L158.874 270.388C158.342 269.871 157.478 269.871 156.946 270.388L120.945 305.376C120.412 305.894 120.412 306.733 120.945 307.251L152.831 338.24C154.119 339.491 155.832 340.181 157.653 340.181C159.474 340.181 161.187 339.491 162.475 338.24L168.839 332.054L186.775 349.486C188.636 351.295 191.081 352.199 193.525 352.199C195.97 352.199 198.414 351.295 200.276 349.486L202.204 347.611C204.007 345.859 205 343.529 205 341.051C205 338.573 204.007 336.243 202.204 334.491ZM153.282 277.698L162.989 287.132C163.521 287.649 163.521 288.49 162.989 289.007C162.458 289.524 161.592 289.523 161.06 289.007L155.66 283.758C154.065 282.208 151.47 282.208 149.874 283.758C148.279 285.308 148.279 287.831 149.874 289.382L152.189 291.631C152.714 292.141 152.714 292.994 152.189 293.505C151.663 294.016 150.786 294.016 150.26 293.505L148.203 291.506C146.608 289.956 144.012 289.956 142.417 291.506C141.644 292.257 141.219 293.255 141.219 294.317C141.219 295.379 141.644 296.378 142.417 297.129L151.674 306.126C152.2 306.636 152.2 307.489 151.674 308C151.149 308.511 150.271 308.51 149.746 308L141.774 300.252C140.179 298.702 137.584 298.702 135.988 300.252C134.393 301.803 134.393 304.325 135.988 305.876L138.046 307.875C138.571 308.385 138.571 309.238 138.046 309.749C137.52 310.26 136.643 310.26 136.117 309.749L128.21 302.064L153.282 277.698ZM146.982 328.805L181.054 295.692L182.211 296.816L148.139 329.93L146.982 328.805ZM160.546 336.365C158.951 337.915 156.355 337.915 154.76 336.365L150.067 331.804L184.14 298.691L188.833 303.251C190.427 304.802 190.427 307.324 188.833 308.875V308.875L160.546 336.365ZM200.276 345.737L198.347 347.611C195.688 350.195 191.362 350.195 188.704 347.611L170.768 330.18L182.34 318.934L200.276 336.366C201.563 337.617 202.273 339.281 202.273 341.051C202.273 342.822 201.564 344.485 200.276 345.737Z" fill="#03045E" fill-opacity="0.15" stroke="#03045E" stroke-opacity="0.15" stroke-width="0.390626"/>
<path d="M131.014 322.855C130.758 322.511 130.347 322.308 129.91 322.308C129.473 322.308 129.063 322.511 128.806 322.855C128.742 322.941 127.216 324.99 125.309 327.863C124.9 328.478 125.083 329.298 125.715 329.695C126.348 330.091 127.192 329.915 127.601 329.299C128.49 327.96 129.303 326.792 129.913 325.933C133.227 330.585 139.093 339.611 139.093 343.425C139.093 348.346 134.973 352.349 129.91 352.349C124.847 352.349 120.728 348.346 120.728 343.425C120.728 342.356 121.277 339.643 124.953 333.488C125.331 332.855 125.11 332.043 124.458 331.676C123.807 331.308 122.972 331.524 122.594 332.157C119.503 337.333 118 341.019 118 343.425C118 349.808 123.343 355 129.91 355C136.477 355 141.82 349.807 141.82 343.425C141.82 337.506 132.12 324.337 131.014 322.855Z" fill="#03045E" fill-opacity="0.15" stroke="#03045E" stroke-opacity="0.15" stroke-width="0.390626"/>
<path d="M132.615 332.914C132.226 332.288 131.388 332.087 130.743 332.465C130.098 332.844 129.891 333.659 130.281 334.285C134.58 341.2 134.725 343.352 134.728 343.425C134.728 346.007 132.567 348.108 129.91 348.108C129.157 348.108 128.546 348.701 128.546 349.434C128.546 350.166 129.157 350.759 129.91 350.759C134.071 350.759 137.456 347.469 137.456 343.425C137.456 342.786 137.107 340.138 132.615 332.914Z" fill="#03045E" fill-opacity="0.15" stroke="#03045E" stroke-opacity="0.15" stroke-width="0.390626"/>
</g>
<g clip-path="url(#clip2_17_2983)">
<path d="M473.039 215.275C471.993 214.315 470.601 213.786 469.121 213.786C467.641 213.786 466.249 214.315 465.203 215.275C463.042 217.258 463.042 220.484 465.203 222.467C466.249 223.427 467.641 223.956 469.121 223.956C470.601 223.956 471.993 223.427 473.039 222.467C474.086 221.506 474.662 220.229 474.662 218.871C474.662 217.513 474.086 216.236 473.039 215.275ZM471.174 220.755C470.042 221.793 468.201 221.793 467.069 220.755C465.937 219.716 465.937 218.026 467.069 216.988C467.635 216.468 468.378 216.209 469.121 216.209C469.864 216.209 470.608 216.468 471.174 216.988C472.305 218.026 472.305 219.716 471.174 220.755Z" fill="#03045E" fill-opacity="0.15" stroke="#03045E" stroke-opacity="0.15" stroke-width="0.390626"/>
<path d="M516.44 175.373C515.924 174.901 515.089 174.901 514.574 175.373L504.871 184.277C504.391 184.718 504.359 185.446 504.801 185.92C505.294 186.449 506.2 186.482 506.737 185.989L516.44 177.086C516.955 176.613 516.955 175.846 516.44 175.373Z" fill="#03045E" fill-opacity="0.15" stroke="#03045E" stroke-opacity="0.15" stroke-width="0.390626"/>
<path d="M520.669 171.492C520.154 171.019 519.318 171.019 518.803 171.492L517.559 172.634C517.044 173.106 517.044 173.873 517.559 174.346C517.817 174.582 518.154 174.7 518.492 174.7C518.83 174.7 519.167 174.582 519.425 174.346L520.669 173.204C521.184 172.732 521.184 171.965 520.669 171.492Z" fill="#03045E" fill-opacity="0.15" stroke="#03045E" stroke-opacity="0.15" stroke-width="0.390626"/>
<path d="M519.531 192.945C519.308 192.741 519.013 192.616 518.699 192.594L512.231 192.137C511.847 192.111 511.469 192.239 511.196 192.489L509.89 193.687L508.872 192.753L524.379 176.713C529.445 178.167 535.012 176.936 538.8 173.46C542.262 170.284 543.708 165.761 542.67 161.362C542.454 160.444 541.173 160.096 540.448 160.762L532.332 168.209C531.824 168.676 530.974 168.676 530.466 168.209L524.246 162.502C523.738 162.035 523.738 161.256 524.246 160.789L532.362 153.342C533.088 152.676 532.708 151.502 531.708 151.303C526.914 150.35 521.986 151.677 518.524 154.854C514.736 158.33 513.395 163.439 514.98 168.088L497.5 182.317L489.095 174.605C488.58 174.132 487.745 174.132 487.229 174.605C486.714 175.078 486.714 175.844 487.229 176.317L508.025 195.4L506.408 196.884L474.149 167.282L475.766 165.798L483.394 172.798C483.931 173.29 484.837 173.257 485.33 172.728C485.772 172.254 485.74 171.526 485.26 171.085L476.882 163.398L473.749 156.54C473.628 156.277 473.41 156.061 473.133 155.931L462.933 151.136C462.423 150.897 461.804 150.986 461.399 151.358L458.413 154.098C458.008 154.469 457.911 155.038 458.172 155.506L463.396 164.866C463.538 165.12 463.774 165.32 464.06 165.43L471.533 168.306L491.831 186.932L461.165 211.895C459.244 213.433 458.092 215.656 458.005 217.994C457.918 220.332 458.902 222.621 460.705 224.275L463.149 226.518C464.878 228.105 467.244 229 469.683 229C469.786 229 469.891 228.998 469.994 228.995C472.542 228.915 474.965 227.858 476.633 226.103L489.856 212.425C490.339 211.925 490.289 211.159 489.744 210.716C489.2 210.272 488.365 210.318 487.882 210.818L474.651 224.504C473.437 225.782 471.751 226.517 469.904 226.575C468.055 226.633 466.321 226.004 465.015 224.806L462.571 222.563C461.265 221.364 460.58 219.771 460.643 218.076C460.706 216.382 461.508 214.835 462.908 213.713L493.7 188.647L495.069 189.903L469.572 210.308C468.743 210.971 469.152 212.26 470.235 212.416C471.731 212.632 473.088 213.265 474.159 214.248C475.198 215.201 475.881 216.406 476.134 217.733C476.322 218.714 477.712 219.072 478.428 218.32L500.606 194.984L501.974 196.24L491.627 206.943C491.188 207.398 491.189 208.103 491.632 208.555C492.151 209.086 493.085 209.084 493.601 208.55L503.844 197.955L504.542 198.596L503.236 199.794C502.964 200.044 502.824 200.391 502.853 200.743L503.351 206.679C503.375 206.967 503.511 207.238 503.734 207.443L525.179 227.122C526.425 228.265 528.081 228.895 529.843 228.895C531.605 228.895 533.262 228.265 534.508 227.122L540.977 221.186C542.223 220.042 542.909 218.522 542.909 216.905C542.909 215.288 542.223 213.768 540.977 212.624L519.531 192.945ZM465.525 163.368L460.959 155.186L462.585 153.693L471.502 157.884L474.207 163.804L471.977 165.851L465.525 163.368ZM477.982 215.105C477.001 213.158 475.244 211.564 473.108 210.691L496.939 191.619L498.736 193.268L477.982 215.105ZM507.003 191.038L499.369 184.032L517.127 169.577C517.726 169.299 518.006 168.631 517.762 168.057C516.079 164.086 517.11 159.576 520.39 156.566C522.587 154.55 525.51 153.446 528.542 153.423L522.38 159.077C520.837 160.493 520.837 162.798 522.38 164.214L528.6 169.921C530.143 171.337 532.654 171.337 534.198 169.921L540.36 164.267C540.334 167.049 539.132 169.732 536.934 171.748C533.654 174.758 528.74 175.704 524.413 174.159C523.787 173.936 523.058 174.193 522.756 174.743L507.003 191.038ZM505.53 201.113L512.633 194.595L515.636 194.807L505.761 203.869L505.53 201.113ZM539.11 219.473L532.642 225.409C531.894 226.096 530.9 226.473 529.843 226.473C528.785 226.473 527.791 226.095 527.044 225.409L506.532 206.586L518.598 195.514L539.11 214.337C539.858 215.023 540.27 215.935 540.27 216.905C540.27 217.875 539.858 218.787 539.11 219.473Z" fill="#03045E" fill-opacity="0.15" stroke="#03045E" stroke-opacity="0.15" stroke-width="0.390626"/>
<path d="M535.578 215.89L519.407 201.05C518.659 200.364 517.665 199.986 516.608 199.986C515.551 199.986 514.556 200.364 513.809 201.05L512.565 202.192C511.817 202.878 511.406 203.79 511.406 204.76C511.406 205.73 511.817 206.642 512.565 207.328L528.736 222.168C529.484 222.854 530.478 223.232 531.535 223.232C532.592 223.232 533.587 222.854 534.334 222.168L535.578 221.026C536.326 220.34 536.737 219.428 536.737 218.458C536.737 217.488 536.326 216.576 535.578 215.89ZM533.712 219.314L532.468 220.456C532.219 220.684 531.888 220.81 531.535 220.81C531.183 220.81 530.851 220.684 530.602 220.456L514.431 205.616C514.182 205.387 514.044 205.083 514.044 204.76C514.044 204.437 514.182 204.133 514.431 203.904L515.675 202.762C515.924 202.534 516.255 202.408 516.608 202.408C516.96 202.408 517.292 202.534 517.541 202.762L533.712 217.602C533.961 217.831 534.099 218.135 534.099 218.458C534.099 218.781 533.961 219.086 533.712 219.314Z" fill="#03045E" fill-opacity="0.15" stroke="#03045E" stroke-opacity="0.15" stroke-width="0.390626"/>
<path d="M519.282 205.502L518.785 205.045C518.269 204.572 517.434 204.572 516.919 205.045C516.403 205.518 516.403 206.285 516.919 206.757L517.416 207.214C517.674 207.45 518.012 207.569 518.349 207.569C518.687 207.569 519.025 207.451 519.282 207.214C519.798 206.741 519.798 205.975 519.282 205.502Z" fill="#03045E" fill-opacity="0.15" stroke="#03045E" stroke-opacity="0.15" stroke-width="0.390626"/>
<path d="M523.263 209.155L522.765 208.698C522.25 208.225 521.415 208.225 520.899 208.698C520.384 209.171 520.384 209.938 520.899 210.41L521.397 210.867C521.655 211.103 521.993 211.222 522.33 211.222C522.668 211.222 523.005 211.104 523.263 210.867C523.778 210.394 523.778 209.627 523.263 209.155Z" fill="#03045E" fill-opacity="0.15" stroke="#03045E" stroke-opacity="0.15" stroke-width="0.390626"/>
<path d="M527.244 212.808L526.746 212.351C526.231 211.878 525.395 211.878 524.88 212.351C524.365 212.824 524.365 213.59 524.88 214.063L525.378 214.52C525.635 214.756 525.973 214.875 526.311 214.875C526.648 214.875 526.986 214.756 527.243 214.52C527.759 214.047 527.759 213.28 527.244 212.808Z" fill="#03045E" fill-opacity="0.15" stroke="#03045E" stroke-opacity="0.15" stroke-width="0.390626"/>
<path d="M531.224 216.461L530.727 216.004C530.211 215.531 529.376 215.531 528.861 216.004C528.345 216.477 528.345 217.243 528.861 217.716L529.358 218.173C529.616 218.409 529.954 218.527 530.291 218.527C530.629 218.527 530.967 218.409 531.224 218.173C531.74 217.7 531.74 216.933 531.224 216.461Z" fill="#03045E" fill-opacity="0.15" stroke="#03045E" stroke-opacity="0.15" stroke-width="0.390626"/>
</g>
<path d="M1159.93 308.05H1126.53V299.336H1159.93C1164.85 299.336 1168.85 295.334 1168.85 290.415C1168.85 285.496 1164.85 281.494 1159.93 281.494H1126.53V270.498C1126.53 268.779 1125.13 267.386 1123.41 267.386H1108.48C1106.76 267.386 1105.36 268.779 1105.36 270.498C1105.36 272.217 1106.76 273.61 1108.48 273.61H1120.3V333.776H1074.04C1065.46 333.776 1058.48 326.796 1058.48 318.216V289.17C1058.48 280.59 1065.46 273.61 1074.04 273.61H1091.88C1093.6 273.61 1094.99 272.217 1094.99 270.498C1094.99 268.779 1093.6 267.386 1091.88 267.386H1074.04C1062.03 267.386 1052.25 277.158 1052.25 289.17V294.357H1005.16C1000.01 294.357 995.822 290.169 995.822 285.021V243.527C995.822 238.379 1000.01 234.191 1005.16 234.191H1136.28C1151.72 234.191 1164.29 221.627 1164.29 206.183V168.008C1164.29 152.564 1151.72 140 1136.28 140H988.145C982.998 140 978.809 144.188 978.809 149.336C978.809 154.484 982.998 158.672 988.145 158.672H1012.21C1013.93 158.672 1015.32 157.279 1015.32 155.56C1015.32 153.841 1013.93 152.448 1012.21 152.448H988.145C986.429 152.448 985.033 151.052 985.033 149.336C985.033 147.62 986.429 146.223 988.145 146.223H1136.28C1148.29 146.223 1158.06 155.996 1158.06 168.008V206.182C1158.06 218.194 1148.29 227.966 1136.28 227.966H1005.16C996.578 227.966 989.598 234.946 989.598 243.527V285.02C989.598 293.6 996.578 300.58 1005.16 300.58H1052.25V306.805H1005.16C993.146 306.805 983.373 297.032 983.373 285.02V243.527C983.373 231.515 993.146 221.743 1005.16 221.743H1136.28C1144.86 221.743 1151.84 214.763 1151.84 206.182V168.008C1151.84 159.428 1144.86 152.448 1136.28 152.448H1028.81C1027.09 152.448 1025.7 153.841 1025.7 155.56C1025.7 157.279 1027.09 158.672 1028.81 158.672H1136.28C1141.43 158.672 1145.61 162.86 1145.61 168.008V206.182C1145.61 211.33 1141.43 215.518 1136.28 215.518H1005.16C989.714 215.518 977.15 228.083 977.15 243.527V285.02C977.15 300.464 989.714 313.029 1005.16 313.029H1052.25V318.215C1052.25 330.227 1062.03 340 1074.04 340H1123.42C1125.13 340 1126.53 338.606 1126.53 336.888V325.892H1159.93C1164.85 325.892 1168.85 321.89 1168.85 316.971C1168.85 312.052 1164.85 308.05 1159.93 308.05ZM1126.53 287.718H1159.93C1161.42 287.718 1162.63 288.928 1162.63 290.415C1162.63 291.903 1161.42 293.112 1159.93 293.112H1126.53V287.718ZM1159.93 319.668H1126.53V314.274H1159.93C1161.42 314.274 1162.63 315.484 1162.63 316.971C1162.63 318.458 1161.42 319.668 1159.93 319.668Z" fill="#03045E" fill-opacity="0.15"/>
<path d="M1110.14 295.602H1100.1L1104.01 281.275C1104.37 279.94 1103.81 278.525 1102.63 277.802C1101.45 277.08 1099.94 277.223 1098.91 278.154L1071.53 303.05C1069.47 304.924 1070.84 308.464 1073.62 308.464H1082.95L1078.89 325.373C1078.6 326.598 1079.1 327.913 1080.13 328.64C1081.33 329.494 1083.03 329.364 1084.09 328.332L1112.3 300.946C1114.27 299.039 1112.87 295.602 1110.14 295.602ZM1089.34 303.426C1088.75 302.678 1087.85 302.241 1086.9 302.241H1081.67L1095.19 289.948L1093.03 297.895C1092.77 298.831 1092.97 299.832 1093.56 300.603C1094.14 301.374 1095.06 301.826 1096.03 301.826H1102.46L1087.45 316.396L1089.93 306.079C1090.15 305.152 1089.93 304.175 1089.34 303.426Z" fill="#03045E" fill-opacity="0.15"/>
<g clip-path="url(#clip3_17_2983)">
<path d="M82.6957 376.638H65.6522C64.9317 376.638 64.3479 377.166 64.3479 377.818C64.3479 378.469 64.9318 378.998 65.6522 378.998H67.8261V387.652H43.3043V378.998H58.6957C59.4162 378.998 60 378.469 60 377.818C60 377.166 59.4161 376.638 58.6957 376.638H42C41.2796 376.638 40.6957 377.166 40.6957 377.818V387.652H28.4348C27.7144 387.652 27.1305 388.181 27.1305 388.832V398.667H14.8696C14.1492 398.667 13.5653 399.195 13.5653 399.847V409.996H1.3043C0.583898 409.996 0 410.524 0 411.176V422.191C0 422.842 0.584063 423.371 1.3043 423.371H14.1739C14.8942 423.371 15.4781 422.842 15.4781 422.191C15.4781 421.539 14.8941 421.01 14.1739 421.01H2.60876V412.356H27.1305V421.01H21.1306C20.4102 421.01 19.8263 421.539 19.8263 422.191C19.8263 422.842 20.4104 423.371 21.1306 423.371H82.6957C83.4163 423.371 84 422.842 84 422.191V377.818C84 377.166 83.4161 376.638 82.6957 376.638ZM29.7391 390.012H54.2609V398.667H29.7391V390.012ZM67.8261 401.027V409.681H43.3043V401.027H67.8261ZM16.1739 409.681V401.027H40.6957V409.681H16.1739ZM54.2609 421.01H29.7391V412.356H54.2609V421.01ZM81.3912 421.01H56.8696V412.356H81.3914V421.01H81.3912ZM81.3912 409.681H70.4347V401.027H81.3912V409.681ZM81.3912 398.667H56.8696V390.012H81.3914V398.667H81.3912ZM81.3912 387.652H70.4347V378.998H81.3912V387.652Z" fill="#03045E" fill-opacity="0.15"/>
<path d="M77.4782 348H59.0435C58.9188 348 58.7949 348.016 58.6755 348.048L40.9364 352.769C40.522 352.879 40.205 353.164 40.0706 353.519C40.0331 353.565 34.9199 362.358 34.9199 362.358C32.7687 361.042 30.1775 360.273 27.3914 360.273C20.3669 360.273 1.73859 371.017 0.948961 371.474C0.161626 371.93 0.161626 373.006 0.948961 373.462C1.73859 373.919 20.3669 384.663 27.3914 384.663C34.8233 384.663 40.8696 379.192 40.8696 372.468C40.8696 369.131 39.3795 366.104 36.971 363.9L41.962 355.306L58.6755 359.754C58.7949 359.785 58.9188 359.801 59.0435 359.801H77.4782C81.0745 359.801 84 357.154 84 353.901C84 350.647 81.0745 348 77.4782 348ZM38.2609 372.468C38.2609 377.891 33.3848 382.302 27.3912 382.302C22.6923 382.302 10.2904 375.921 4.10585 372.468C10.2904 369.015 22.6923 362.634 27.3912 362.634C29.7406 362.634 31.9164 363.314 33.6962 364.465L29.7336 371.288H19.3912C18.6708 371.288 18.0869 371.816 18.0869 372.468C18.0869 373.12 18.671 373.648 19.3912 373.648H30.5217C31.0064 373.648 31.451 373.405 31.6764 373.017L35.6825 366.119C37.2891 367.833 38.2609 370.049 38.2609 372.468ZM57.7392 357.044L45.927 353.901L57.7392 350.757V357.044ZM77.4782 357.441H60.3435C60.3455 357.415 60.3478 357.389 60.3478 357.362V350.36H77.4782C79.6358 350.36 81.3913 351.948 81.3913 353.901C81.3913 355.853 79.6358 357.441 77.4782 357.441Z" fill="#03045E" fill-opacity="0.15"/>
<path d="M14.1739 371.288H11.7392C11.0188 371.288 10.4349 371.816 10.4349 372.468C10.4349 373.119 11.0189 373.648 11.7392 373.648H14.174C14.8944 373.648 15.4783 373.119 15.4783 372.468C15.4783 371.816 14.8943 371.288 14.1739 371.288Z" fill="#03045E" fill-opacity="0.15"/>
</g>
<g clip-path="url(#clip4_17_2983)">
<path d="M355.773 164.887H349.618V164.32C349.618 163.041 348.388 162 346.876 162H331.031C329.519 162 328.289 163.041 328.289 164.32V164.887H325.242V164.32C325.242 163.041 324.011 162 322.499 162H319.818C318.306 162 317.076 163.041 317.076 164.32V177.518C317.076 178.798 318.306 179.838 319.818 179.838H322.499C324.011 179.838 325.242 178.798 325.242 177.518V176.951H328.867L333.164 180.041V192.768L331.042 194.563C330.524 195.001 330.239 195.584 330.239 196.204V207.936C330.239 210.069 332.289 211.803 334.809 211.803H343.097C345.618 211.803 347.668 210.069 347.668 207.936V206.08C347.668 205.653 347.259 205.307 346.754 205.307C346.249 205.307 345.84 205.653 345.84 206.08V207.936C345.84 209.216 344.609 210.256 343.097 210.256H334.809C333.297 210.256 332.067 209.216 332.067 207.936V206.854H335.053C335.558 206.854 335.967 206.507 335.967 206.08C335.967 205.653 335.558 205.307 335.053 205.307H332.067V203.554H335.053C335.558 203.554 335.967 203.208 335.967 202.781C335.967 202.354 335.558 202.007 335.053 202.007H332.067V200.255H335.053C335.558 200.255 335.967 199.908 335.967 199.481C335.967 199.054 335.558 198.708 335.053 198.708H332.067V196.204C332.067 195.997 332.162 195.803 332.335 195.657L334.457 193.862H343.45L345.572 195.657C345.745 195.803 345.84 195.997 345.84 196.204V201.956C345.84 202.383 346.249 202.729 346.754 202.729C347.259 202.729 347.668 202.383 347.668 201.956V196.204C347.668 195.584 347.383 195.001 346.865 194.563L344.743 192.768V180.041L349.04 176.951H357.183L362.285 184.8C362.493 185.12 362.951 185.274 363.363 185.164C363.738 185.063 364 184.76 364 184.427V171.847C364 168.009 360.309 164.887 355.773 164.887ZM323.413 177.518C323.413 177.945 323.003 178.292 322.499 178.292H319.818C319.314 178.292 318.904 177.945 318.904 177.518V164.32C318.904 163.894 319.314 163.547 319.818 163.547H322.499C323.003 163.547 323.413 163.894 323.413 164.32V177.518ZM328.289 175.405H325.242V166.434H328.289V175.405ZM342.914 192.315H334.992V180.457H342.914V192.315ZM347.79 175.82L343.493 178.91H334.414L330.117 175.82V164.32C330.117 163.894 330.527 163.547 331.031 163.547H346.876C347.38 163.547 347.79 163.894 347.79 164.32V175.82ZM362.172 181.416L358.524 175.805C358.363 175.558 358.057 175.405 357.723 175.405H349.618V166.434H355.773C359.301 166.434 362.172 168.862 362.172 171.847V181.416Z" fill="#03045E" fill-opacity="0.15" stroke="#03045E" stroke-opacity="0.15" stroke-width="0.390625"/>
<path d="M345.779 164.887H343.585C343.08 164.887 342.671 165.233 342.671 165.66C342.671 166.087 343.08 166.434 343.585 166.434H345.779C346.283 166.434 346.693 166.087 346.693 165.66C346.693 165.233 346.283 164.887 345.779 164.887Z" fill="#03045E" fill-opacity="0.15" stroke="#03045E" stroke-opacity="0.15" stroke-width="0.390625"/>
<path d="M339.685 164.887H332.128C331.623 164.887 331.214 165.233 331.214 165.66C331.214 166.087 331.623 166.434 332.128 166.434H339.685C340.189 166.434 340.599 166.087 340.599 165.66C340.599 165.233 340.189 164.887 339.685 164.887Z" fill="#03045E" fill-opacity="0.15" stroke="#03045E" stroke-opacity="0.15" stroke-width="0.390625"/>
<path d="M327.009 191.284H317.258C316.754 191.284 316.344 191.63 316.344 192.057V194.326C316.344 194.753 316.754 195.099 317.258 195.099H319.269V207.524C319.269 207.632 319.296 207.739 319.348 207.838L321.298 211.55C321.613 212.15 322.654 212.15 322.969 211.55L324.919 207.838C324.971 207.739 324.998 207.632 324.998 207.524V195.099H327.009C327.514 195.099 327.923 194.753 327.923 194.326V192.057C327.923 191.63 327.514 191.284 327.009 191.284ZM323.17 207.36L322.134 209.332L321.098 207.36V195.202H323.17V207.36ZM326.095 193.552H318.172V192.83H326.095V193.552Z" fill="#03045E" fill-opacity="0.15" stroke="#03045E" stroke-opacity="0.15" stroke-width="0.390625"/>
<path d="M316.04 182.21H306.289C305.784 182.21 305.375 182.556 305.375 182.983V185.252C305.375 185.679 305.784 186.025 306.289 186.025H308.3V190.407C308.3 190.834 308.709 191.181 309.214 191.181C309.719 191.181 310.128 190.834 310.128 190.407V186.025H312.2V207.36L311.164 209.332L310.128 207.36V194.532C310.128 194.105 309.719 193.759 309.214 193.759C308.709 193.759 308.3 194.105 308.3 194.532V207.524C308.3 207.632 308.327 207.739 308.379 207.838L310.329 211.55C310.644 212.15 311.684 212.15 312 211.55L313.95 207.838C314.002 207.739 314.028 207.632 314.028 207.524V186.025H316.04C316.544 186.025 316.954 185.679 316.954 185.252V182.983C316.954 182.556 316.544 182.21 316.04 182.21ZM315.125 184.478H307.203V183.757H315.125V184.478Z" fill="#03045E" fill-opacity="0.15" stroke="#03045E" stroke-opacity="0.15" stroke-width="0.390625"/>
</g>
<g clip-path="url(#clip5_17_2983)">
<path d="M622.401 134.774C621.627 134.774 621 135.436 621 136.253V142.561C621 143.377 621.627 144.039 622.401 144.039C623.176 144.039 623.803 143.377 623.803 142.561V136.253C623.803 135.436 623.176 134.774 622.401 134.774Z" fill="#03045E" fill-opacity="0.15"/>
<path d="M641.835 139.111C637.765 139.111 634.454 142.604 634.454 146.897C634.454 151.191 637.765 154.684 641.835 154.684C645.904 154.684 649.216 151.191 649.216 146.897C649.216 142.604 645.904 139.111 641.835 139.111ZM641.835 151.727C639.31 151.727 637.257 149.56 637.257 146.897C637.257 144.234 639.31 142.068 641.835 142.068C644.359 142.068 646.413 144.234 646.413 146.897C646.413 149.56 644.359 151.727 641.835 151.727Z" fill="#03045E" fill-opacity="0.15"/>
<path d="M704.993 146.207H704.508C704.185 139.635 699.289 134.234 693.044 133.647C692.922 133.611 692.793 133.591 692.66 133.591H641.835C634.88 133.591 629.222 139.56 629.222 146.897C629.222 154.234 634.88 160.203 641.835 160.203H684.886C684.21 161.747 682.747 162.766 681.075 162.766H661.268C657.61 162.766 654.635 165.905 654.635 169.764V183.562C654.635 186.008 652.749 187.997 650.43 187.997H650.057C647.738 187.997 645.852 186.008 645.852 183.562V169.764C645.852 165.905 642.877 162.766 639.219 162.766C635.561 162.766 632.585 165.905 632.585 169.764V199.332C632.585 201.778 630.699 203.768 628.381 203.768H628.007C625.689 203.768 623.803 201.778 623.803 199.332V150.446C623.803 149.629 623.176 148.967 622.402 148.967C621.627 148.967 621 149.629 621 150.446V199.333C621 203.409 624.143 206.725 628.007 206.725H628.381C632.245 206.725 635.388 203.409 635.388 199.333V169.764C635.388 167.536 637.106 165.723 639.219 165.723C641.331 165.723 643.049 167.536 643.049 169.764V183.563C643.049 187.639 646.193 190.955 650.056 190.955H650.43C654.294 190.955 657.437 187.639 657.437 183.563V169.764C657.437 167.536 659.156 165.723 661.268 165.723H681.075C684.29 165.723 687.049 163.464 687.853 160.203H692.66C692.793 160.203 692.922 160.184 693.044 160.147C698.781 159.608 703.378 155.005 704.338 149.164H704.993C707.311 149.164 709.197 151.154 709.197 153.6V163.85C709.197 166.296 707.311 168.285 704.993 168.285H675.095C671.231 168.285 668.088 171.602 668.088 175.678V183.563C668.088 184.379 668.715 185.041 669.49 185.041C670.264 185.041 670.891 184.379 670.891 183.563V175.678C670.891 173.232 672.777 171.242 675.095 171.242H704.993C708.857 171.242 712 167.926 712 163.85V153.6C712 149.523 708.857 146.207 704.993 146.207ZM661.455 136.548H686.681V147.981C686.681 148.797 686.052 149.46 685.279 149.46C684.506 149.46 683.878 148.797 683.878 147.981V143.645C683.878 141.199 681.992 139.209 679.673 139.209C677.355 139.209 675.469 141.199 675.469 143.645V151.333C675.469 152.148 674.841 152.811 674.068 152.811C673.295 152.811 672.666 152.148 672.666 151.333V145.616C672.666 143.17 670.78 141.181 668.462 141.181C666.144 141.181 664.258 143.17 664.258 145.616V146.404C664.258 147.22 663.629 147.883 662.856 147.883C662.083 147.883 661.455 147.22 661.455 146.404V136.548ZM641.835 157.246C636.426 157.246 632.025 152.604 632.025 146.897C632.025 141.191 636.426 136.548 641.835 136.548C647.244 136.548 651.645 141.191 651.645 146.897C651.645 152.604 647.244 157.246 641.835 157.246ZM692.568 157.22C692.505 157.225 692.443 157.233 692.383 157.246H649.75C652.613 154.805 654.448 151.074 654.448 146.897C654.448 142.721 652.613 138.989 649.75 136.548H658.652V146.405C658.652 148.85 660.538 150.84 662.856 150.84C665.174 150.84 667.061 148.85 667.061 146.405V145.616C667.061 144.801 667.689 144.138 668.462 144.138C669.235 144.138 669.863 144.801 669.863 145.616V151.333C669.863 153.779 671.75 155.768 674.068 155.768C676.386 155.768 678.272 153.779 678.272 151.333V143.645C678.272 142.829 678.901 142.166 679.673 142.166C680.446 142.166 681.075 142.829 681.075 143.645V147.981C681.075 150.427 682.961 152.417 685.279 152.417C687.597 152.417 689.484 150.427 689.484 147.981V136.548H692.383C692.443 136.561 692.505 136.57 692.568 136.574C697.701 136.931 701.723 141.466 701.723 146.897C701.723 152.329 697.701 156.864 692.568 157.22Z" fill="#03045E" fill-opacity="0.15"/>
<path d="M672.293 197.066H670.891V191.448C670.891 190.631 670.264 189.969 669.49 189.969C668.715 189.969 668.088 190.631 668.088 191.448V197.066H666.687C664.369 197.066 662.482 199.055 662.482 201.501V223.973C662.482 226.419 664.369 228.409 666.687 228.409H672.293C674.611 228.409 676.497 226.419 676.497 223.973V201.501C676.497 199.055 674.611 197.066 672.293 197.066ZM673.694 223.973C673.694 224.789 673.065 225.452 672.293 225.452H666.687C665.914 225.452 665.285 224.789 665.285 223.973V201.501C665.285 200.686 665.914 200.023 666.687 200.023H672.293C673.065 200.023 673.694 200.686 673.694 201.501V223.973Z" fill="#03045E" fill-opacity="0.15"/>
</g>
<path d="M201.179 203.251C200.819 202.608 200.018 202.387 199.391 202.755C198.763 203.124 198.547 203.944 198.907 204.586C202.265 210.576 202.767 213.237 202.767 214.289C202.767 219.268 198.811 223.318 193.948 223.318C189.085 223.318 185.129 219.268 185.129 214.289C185.129 210.433 190.763 201.298 193.945 196.591C194.58 197.534 195.447 198.846 196.387 200.35C196.777 200.974 197.588 201.156 198.197 200.756C198.806 200.357 198.983 199.528 198.593 198.904C196.66 195.814 195.074 193.571 195.008 193.477C194.494 192.751 193.401 192.751 192.887 193.477C191.825 194.976 182.509 208.3 182.509 214.289C182.509 220.747 187.64 226 193.948 226C200.255 226 205.386 220.746 205.386 214.289C205.387 211.912 204.01 208.301 201.179 203.251Z" fill="#03045E" fill-opacity="0.15"/>
<path d="M252.277 161.455H237.446C236.42 160.213 235.201 159.198 233.852 158.435V149.476H236.058C237.126 151.396 239.142 152.694 241.449 152.694C244.868 152.694 247.649 149.847 247.649 146.347C247.649 142.847 244.867 140 241.449 140C239.288 140 237.382 141.139 236.272 142.861H219.033C217.924 141.139 216.018 140 213.857 140C210.438 140 207.657 142.847 207.657 146.347C207.657 149.847 210.438 152.694 213.857 152.694C216.164 152.694 218.18 151.396 219.247 149.476H221.453V158.435C220.104 159.198 218.885 160.213 217.859 161.455H213.507C212.784 161.455 212.198 162.055 212.198 162.796C212.198 163.537 212.784 164.137 213.507 164.137H218.487C218.895 164.137 219.28 163.942 219.528 163.61C221.481 160.991 224.442 159.488 227.653 159.488C230.864 159.488 233.825 160.99 235.777 163.61C236.025 163.942 236.41 164.137 236.819 164.137H250.967V175.759H236.819C236.41 175.759 236.025 175.954 235.778 176.286C233.825 178.905 230.864 180.407 227.653 180.407C224.442 180.407 221.481 178.905 219.528 176.286C219.28 175.954 218.895 175.759 218.487 175.759H200.235C199.512 175.759 198.925 176.359 198.925 177.1V181.48H187.574V169.948C187.574 166.744 190.12 164.137 193.249 164.137H206.522C207.245 164.137 207.832 163.537 207.832 162.796C207.832 162.055 207.245 161.455 206.522 161.455H193.249C188.676 161.455 184.954 165.265 184.954 169.948V181.48H181.723C181 181.48 180.414 182.08 180.414 182.821V188.9C180.414 189.641 181 190.241 181.723 190.241H203.728C204.451 190.241 205.037 189.641 205.037 188.9V182.821C205.037 182.08 204.451 181.48 203.728 181.48H201.545V178.44H217.859C220.306 181.403 223.839 183.089 227.653 183.089C231.466 183.089 234.999 181.403 237.446 178.44H252.276C253 178.44 253.586 177.84 253.586 177.1V162.796C253.586 162.055 253 161.455 252.277 161.455ZM241.449 142.682C243.423 142.682 245.029 144.326 245.029 146.347C245.029 148.368 243.423 150.012 241.449 150.012C239.475 150.012 237.869 148.368 237.869 146.347C237.869 144.326 239.475 142.682 241.449 142.682ZM213.857 150.012C211.882 150.012 210.277 148.368 210.277 146.347C210.277 144.326 211.883 142.682 213.857 142.682C215.831 142.682 217.437 144.326 217.437 146.347C217.437 148.368 215.831 150.012 213.857 150.012ZM220.039 146.794C220.049 146.646 220.056 146.498 220.056 146.347C220.056 146.075 220.037 145.806 220.005 145.543H235.301C235.268 145.806 235.249 146.075 235.249 146.347C235.249 146.498 235.257 146.646 235.267 146.794H220.039ZM231.233 157.323C230.087 156.985 228.885 156.807 227.653 156.807C226.421 156.807 225.219 156.985 224.073 157.323V149.476H231.233V157.323ZM202.418 184.162V187.559H183.033V184.162H202.418Z" fill="#03045E" fill-opacity="0.15"/>
<path d="M197.544 205.387C197.184 204.745 196.383 204.523 195.756 204.892C195.128 205.261 194.912 206.08 195.272 206.722C198.455 212.399 198.572 214.231 198.576 214.289C198.576 216.902 196.5 219.027 193.948 219.027C193.225 219.027 192.638 219.627 192.638 220.368C192.638 221.109 193.225 221.709 193.948 221.709C197.944 221.709 201.195 218.38 201.195 214.289C201.195 213.729 200.932 211.43 197.544 205.387Z" fill="#03045E" fill-opacity="0.15"/>
<g clip-path="url(#clip6_17_2983)">
<path d="M1045.33 364.658L1026.59 347.418C1025.99 346.861 1025.01 346.861 1024.4 347.418L1020.59 350.92C1019.99 351.478 1019.99 352.383 1020.59 352.941L1022.91 355.076L1020.52 364.723L999.793 383.794L996.059 380.36C993.032 377.575 988.107 377.575 985.08 380.36L971.598 392.763C970.51 393.763 970.03 395.192 970.313 396.583L973.134 410.421C973.491 412.171 974.951 413.514 976.854 413.843L991.894 416.438C993.394 416.696 994.969 416.248 996.047 415.256L1009.53 402.852C1012.56 400.067 1012.56 395.536 1009.53 392.751L1005.8 389.316L1017.18 378.845C1017.78 378.287 1017.78 377.383 1017.18 376.825C1016.57 376.267 1015.59 376.267 1014.98 376.825L990.935 398.946C990.491 399.355 989.769 399.355 989.325 398.946C988.881 398.538 988.881 397.873 989.325 397.465L1021.84 367.554L1023.45 369.036L1019.62 372.561C1019.01 373.119 1019.01 374.024 1019.62 374.581C1020.22 375.139 1021.2 375.139 1021.81 374.581L1026.52 370.245L1037.01 368.045L1039.33 370.18C1039.93 370.731 1040.93 370.731 1041.53 370.18L1045.33 366.678C1045.94 366.121 1045.94 365.216 1045.33 364.658ZM987.129 395.445C985.474 396.967 985.474 399.445 987.129 400.967C987.956 401.728 989.043 402.109 990.13 402.109C991.217 402.109 992.304 401.728 993.131 400.967L1003.6 391.337L1007.33 394.772C1009.15 396.442 1009.15 399.161 1007.33 400.832L993.85 413.235C993.488 413.569 992.97 413.716 992.466 413.629L977.425 411.035C976.791 410.925 976.304 410.477 976.185 409.894L973.365 396.056C973.271 395.593 973.431 395.117 973.794 394.783L987.275 382.38C989.092 380.709 992.047 380.709 993.863 382.38L997.596 385.815L987.129 395.445ZM1026.07 367.409L1023.6 365.139L1025.51 357.462L1034.42 365.659L1026.07 367.409ZM1040.43 367.15L1023.89 351.93L1025.5 350.449L1042.04 365.668L1040.43 367.15Z" fill="#03045E" fill-opacity="0.15"/>
<path d="M1042.77 419.904C1042.22 419.294 1041.24 419.205 1040.58 419.705C1039.92 420.205 1039.82 421.105 1040.36 421.715C1044.01 425.803 1046.17 430.878 1046.56 436.143H991.402C992.35 422.923 1004.41 412.397 1018.98 412.397C1024.79 412.397 1030.34 414.036 1035.05 417.136C1035.75 417.595 1036.72 417.448 1037.22 416.806C1037.72 416.165 1037.56 415.272 1036.86 414.813C1031.62 411.363 1025.44 409.54 1018.98 409.54C1010.82 409.54 1003.13 412.451 997.336 417.737C996.455 418.54 995.635 419.384 994.876 420.263C992.228 419.173 989.404 418.619 986.474 418.619C979.556 418.619 973.423 421.773 969.686 426.6C968.681 426.361 967.646 426.238 966.598 426.238C959.805 426.238 954.279 431.322 954.279 437.572C954.279 438.361 954.974 439 955.832 439H1048.17C1049.02 439 1049.73 438.341 1049.72 437.559C1049.66 431.135 1047.19 424.865 1042.77 419.904ZM965.932 436.143H957.516C958.256 432.147 962.047 429.095 966.598 429.095C967.07 429.095 967.538 429.128 967.999 429.193C966.857 431.317 966.134 433.664 965.932 436.143ZM969.052 436.143C969.841 427.935 977.351 421.476 986.474 421.476C988.751 421.476 990.95 421.869 993.028 422.644C990.232 426.673 988.597 431.292 988.289 436.143H969.052Z" fill="#03045E" fill-opacity="0.15"/>
</g>
<g clip-path="url(#clip7_17_2983)">
<path d="M662.058 349.551C663.131 349.551 664 348.731 664 347.719V283.235C664 282.749 663.796 282.283 663.432 281.939L642.722 262.399C642.357 262.055 641.864 261.863 641.349 261.863H597.729V261.496C597.729 258.465 595.116 256 591.904 256H545.825C542.613 256 540 258.465 540 261.496V320.606C540 323.637 542.613 326.102 545.825 326.102H560.71V371.168C560.71 372.18 561.579 373 562.651 373H662.058C663.131 373 664 372.18 664 371.168V357.49C664 356.478 663.131 355.657 662.058 355.657C660.986 355.657 660.117 356.477 660.117 357.49V369.336H564.593V326.102H591.904C595.116 326.102 597.729 323.637 597.729 320.606V289.096C597.729 288.084 596.86 287.264 595.787 287.264C594.714 287.264 593.845 288.084 593.845 289.096V320.607C593.845 321.617 592.974 322.439 591.904 322.439H545.825C544.754 322.439 543.883 321.617 543.883 320.607V261.496C543.883 260.486 544.754 259.664 545.825 259.664H591.904C592.975 259.664 593.846 260.486 593.846 261.496V279.327C593.846 280.339 594.715 281.159 595.787 281.159C596.86 281.159 597.729 280.339 597.729 279.327V265.526H639.414C639.411 265.567 639.407 265.607 639.407 265.648V283.235C639.407 284.247 640.276 285.067 641.349 285.067H659.988C660.032 285.067 660.074 285.063 660.117 285.061V347.719C660.117 348.731 660.986 349.551 662.058 349.551ZM643.29 281.403V268.117L657.371 281.403H643.29Z" fill="#03045E" fill-opacity="0.15"/>
<path d="M588.021 340.025H575.077C574.005 340.025 573.136 340.845 573.136 341.857C573.136 342.869 574.005 343.689 575.077 343.689H588.021C589.093 343.689 589.963 342.869 589.963 341.857C589.962 340.845 589.093 340.025 588.021 340.025Z" fill="#03045E" fill-opacity="0.15"/>
<path d="M588.021 349.795H575.077C574.005 349.795 573.136 350.615 573.136 351.627C573.136 352.639 574.005 353.459 575.077 353.459H588.021C589.093 353.459 589.963 352.64 589.963 351.627C589.962 350.615 589.093 349.795 588.021 349.795Z" fill="#03045E" fill-opacity="0.15"/>
<path d="M626.852 312.668C618.916 312.668 611.519 315.644 606.023 321.048C605.281 321.778 605.306 322.937 606.08 323.638C606.854 324.339 608.083 324.315 608.825 323.585C613.582 318.908 619.984 316.332 626.852 316.332C640.626 316.332 651.833 326.906 651.833 339.903C651.833 352.9 640.626 363.474 626.852 363.474C613.077 363.474 601.871 352.9 601.871 339.903C601.871 336.064 602.817 332.405 604.684 329.025C605.179 328.128 604.81 327.022 603.86 326.554C602.909 326.087 601.736 326.435 601.241 327.332C599.113 331.184 597.988 335.531 597.988 339.903C597.988 354.92 610.936 367.138 626.852 367.138C642.768 367.138 655.716 354.92 655.716 339.903C655.716 324.886 642.767 312.668 626.852 312.668Z" fill="#03045E" fill-opacity="0.15"/>
<path d="M631.284 338.315L628.275 338.232V328.056H635.136C636.208 328.056 637.077 327.236 637.077 326.224C637.077 325.212 636.208 324.392 635.136 324.392H628.275V322.316C628.275 321.304 627.406 320.484 626.334 320.484C625.261 320.484 624.392 321.304 624.392 322.316V324.392H622.451C619.239 324.392 616.626 326.858 616.626 329.888V336.239C616.626 339.259 619.222 341.718 622.419 341.734L624.392 341.789V351.749H618.568C617.495 351.749 616.626 352.569 616.626 353.581C616.626 354.593 617.495 355.413 618.568 355.413H624.392V357.489C624.392 358.501 625.261 359.321 626.334 359.321C627.406 359.321 628.275 358.501 628.275 357.489V355.413H631.252C634.464 355.413 637.077 352.947 637.077 349.917V343.811C637.077 340.791 634.481 338.331 631.284 338.315ZM624.392 338.124L622.508 338.072C622.489 338.071 622.47 338.071 622.451 338.071C621.38 338.071 620.509 337.249 620.509 336.239V329.888C620.509 328.878 621.38 328.056 622.451 328.056H624.393L624.392 338.124ZM633.194 349.918C633.194 350.928 632.323 351.75 631.253 351.75H628.276V341.897L631.195 341.979C631.214 341.979 631.233 341.979 631.253 341.979C632.323 341.979 633.194 342.801 633.194 343.811V349.918Z" fill="#03045E" fill-opacity="0.15"/>
<path d="M589.574 261.862H548.154C547.082 261.862 546.213 262.682 546.213 263.694V273.465C546.213 274.476 547.082 275.297 548.154 275.297H589.574C590.646 275.297 591.516 274.477 591.516 273.465V263.694C591.516 262.682 590.647 261.862 589.574 261.862ZM587.632 271.633H550.096V265.526H587.633V271.633H587.632Z" fill="#03045E" fill-opacity="0.15"/>
<path d="M556.438 277.495H548.154C547.082 277.495 546.213 278.315 546.213 279.327V287.143C546.213 288.155 547.082 288.975 548.154 288.975H556.438C557.511 288.975 558.38 288.155 558.38 287.143V279.327C558.38 278.315 557.511 277.495 556.438 277.495ZM554.497 285.311H550.096V281.159H554.497V285.311Z" fill="#03045E" fill-opacity="0.15"/>
<path d="M573.006 277.495H564.722C563.65 277.495 562.781 278.315 562.781 279.327V287.143C562.781 288.155 563.65 288.975 564.722 288.975H573.006C574.079 288.975 574.948 288.155 574.948 287.143V279.327C574.948 278.315 574.079 277.495 573.006 277.495ZM571.065 285.311H566.664V281.159H571.065V285.311Z" fill="#03045E" fill-opacity="0.15"/>
<path d="M589.574 277.495H581.29C580.218 277.495 579.348 278.315 579.348 279.327V287.143C579.348 288.155 580.217 288.975 581.29 288.975H589.574C590.646 288.975 591.516 288.155 591.516 287.143V279.327C591.516 278.315 590.647 277.495 589.574 277.495ZM587.632 285.311H583.232V281.159H587.632V285.311Z" fill="#03045E" fill-opacity="0.15"/>
<path d="M556.438 293.127H548.154C547.082 293.127 546.213 293.947 546.213 294.959V302.776C546.213 303.788 547.082 304.608 548.154 304.608H556.438C557.511 304.608 558.38 303.788 558.38 302.776V294.959C558.38 293.947 557.511 293.127 556.438 293.127ZM554.497 300.944H550.096V296.791H554.497V300.944Z" fill="#03045E" fill-opacity="0.15"/>
<path d="M573.006 293.127H564.722C563.65 293.127 562.781 293.947 562.781 294.959V302.776C562.781 303.788 563.65 304.608 564.722 304.608H573.006C574.079 304.608 574.948 303.788 574.948 302.776V294.959C574.948 293.947 574.079 293.127 573.006 293.127ZM571.065 300.944H566.664V296.791H571.065V300.944Z" fill="#03045E" fill-opacity="0.15"/>
<path d="M556.438 308.76H548.154C547.082 308.76 546.213 309.58 546.213 310.592V318.408C546.213 319.42 547.082 320.24 548.154 320.24H556.438C557.511 320.24 558.38 319.42 558.38 318.408V310.592C558.38 309.58 557.511 308.76 556.438 308.76ZM554.497 316.576H550.096V312.424H554.497V316.576Z" fill="#03045E" fill-opacity="0.15"/>
<path d="M573.006 308.76H564.722C563.65 308.76 562.781 309.58 562.781 310.592V318.408C562.781 319.42 563.65 320.24 564.722 320.24H573.006C574.079 320.24 574.948 319.42 574.948 318.408V310.592C574.948 309.58 574.079 308.76 573.006 308.76ZM571.065 316.576H566.664V312.424H571.065V316.576Z" fill="#03045E" fill-opacity="0.15"/>
<path d="M589.574 293.127H581.29C580.218 293.127 579.348 293.947 579.348 294.959V318.408C579.348 319.42 580.217 320.24 581.29 320.24H589.574C590.646 320.24 591.516 319.42 591.516 318.408V294.959C591.516 293.947 590.647 293.127 589.574 293.127ZM587.632 316.576H583.232V296.791H587.632V316.576Z" fill="#03045E" fill-opacity="0.15"/>
<path d="M655.111 299.199L644.535 289.723C643.758 289.026 642.529 289.056 641.79 289.79C641.052 290.523 641.084 291.683 641.861 292.379L650.992 300.561L649.381 302.081L621.466 275.742C621.195 275.486 620.85 275.312 620.474 275.241L613.28 273.883L609.816 270.28C609.096 269.53 607.867 269.473 607.074 270.153C606.279 270.833 606.219 271.991 606.939 272.741C606.939 272.741 610.932 276.863 611.064 276.945L612.331 282.923C612.407 283.278 612.591 283.604 612.862 283.859L643.798 313.049C644.934 314.12 646.425 314.656 647.917 314.656C649.408 314.656 650.9 314.12 652.035 313.049H652.035L652.401 312.704C654.672 310.561 654.672 307.074 652.401 304.932L652.127 304.672L655.147 301.823C655.908 301.104 655.892 299.898 655.111 299.199ZM616.024 281.661L615.246 277.991L619.136 278.725L637.849 296.382L634.737 299.318L616.024 281.661ZM649.656 310.113L649.29 310.458C648.533 311.172 647.301 311.173 646.544 310.458L637.484 301.909L640.595 298.973L649.656 307.522C650.413 308.236 650.413 309.398 649.656 310.113Z" fill="#03045E" fill-opacity="0.15"/>
</g>
<path d="M846.781 155.664H839.83C838.574 155.668 838.621 157.54 839.83 157.529H846.781V158.486H839.83C838.581 158.475 838.627 160.346 839.83 160.351H846.781V161.329H839.83C838.581 161.329 838.627 163.199 839.83 163.194H846.781V164.126H839.83C838.607 164.135 838.627 166.007 839.83 166.013H846.781V166.947H839.83C838.607 166.943 838.602 168.812 839.83 168.812H846.781V169.744H839.83C838.607 169.748 838.602 171.619 839.83 171.61H846.781V172.565H839.83C838.607 172.554 838.602 174.423 839.83 174.43H846.781V175.36H839.83C838.607 175.359 838.627 177.232 839.83 177.226H846.781V195.385C846.785 198.152 850.988 198.102 851 195.385V152.89C850.988 151.626 849.95 150.028 848.242 150.023H839.83C838.574 150.024 838.621 151.896 839.83 151.888L846.781 151.911V152.841H839.83C838.576 152.835 838.623 154.706 839.83 154.707H846.781V155.664ZM839.352 187.858C839.348 184.628 836 181.154 832 183.404V171.05L829.413 150.675C829.359 150.136 828.902 150.009 828.595 150C828.278 150.009 827.643 150.136 827.574 150.675L825 171.05V183.404C821 181.154 817.76 184.65 817.759 187.833C817.76 190.665 819.94 192.991 822.89 192.984C825.862 192.991 828 190.384 828 187.833V175H829V187.833C829 190.689 831.212 192.803 833.67 192.937C833.629 194.503 834.14 196.737 835.102 197.623C836.23 198.663 837.573 197.333 837.022 196.25C836.49 195.242 835.968 194.645 836.392 192.444C838.164 191.624 839.348 189.898 839.352 187.858ZM823.004 190.399C821.608 190.39 820.48 189.258 820.478 187.858C820.48 186.459 821.608 185.322 823.004 185.314C824.39 185.322 825.519 186.459 825.529 187.858C825.519 189.259 824.39 190.391 823.004 190.399ZM831.575 187.858C831.584 186.459 832.711 185.322 834.101 185.314C835.493 185.322 836.622 186.459 836.626 187.858C836.622 189.258 835.494 190.39 834.101 190.399C832.711 190.391 831.583 189.259 831.575 187.858Z" fill="#03045E" fill-opacity="0.15"/>
<path d="M772.843 198.413L771.123 197.34C770.973 197.247 770.786 197.209 770.604 197.234C770.421 197.26 770.258 197.347 770.15 197.477L768.855 199.023L763.905 195.93C763.689 195.794 763.419 195.739 763.155 195.775C762.89 195.812 762.654 195.937 762.497 196.124L761.461 197.354L761.426 197.332C761.311 197.26 761.179 197.21 761.039 197.186C760.9 197.161 760.756 197.162 760.617 197.188C760.478 197.215 760.347 197.266 760.233 197.339C760.118 197.413 760.023 197.506 759.954 197.613L759.027 199.045C758.907 199.231 758.87 199.449 758.923 199.657C758.976 199.865 759.116 200.049 759.316 200.174L759.453 200.26L758.158 202.065L758.174 191.867C758.174 191.558 758.032 191.262 757.78 191.044C757.527 190.825 757.185 190.702 756.827 190.701H754.596C754.238 190.701 753.896 190.824 753.643 191.042C753.39 191.261 753.248 191.556 753.248 191.865V195.234H750.018V191.865C750.019 191.712 749.984 191.56 749.917 191.418C749.85 191.277 749.751 191.148 749.626 191.039C749.501 190.93 749.352 190.844 749.188 190.785C749.024 190.726 748.849 190.696 748.671 190.695H746.439C746.081 190.696 745.739 190.819 745.486 191.037C745.234 191.255 745.092 191.551 745.092 191.859L745.08 202.668L744.613 202.266C743.969 201.708 743.134 201.344 742.231 201.229L738.247 200.713L737.391 199.969L737.729 199.677C737.794 199.622 737.845 199.555 737.88 199.482C737.915 199.409 737.933 199.331 737.933 199.252C737.933 199.173 737.915 199.095 737.88 199.022C737.845 198.949 737.794 198.883 737.729 198.827L736.494 197.761C736.364 197.649 736.21 197.56 736.04 197.499C735.87 197.439 735.688 197.408 735.505 197.408C735.321 197.407 735.139 197.438 734.969 197.499C734.799 197.56 734.645 197.649 734.516 197.762L731.787 200.117C731.525 200.343 731.378 200.65 731.378 200.97C731.378 201.291 731.525 201.598 731.787 201.824L733.021 202.891C733.087 202.947 733.164 202.992 733.25 203.022C733.335 203.052 733.427 203.067 733.52 203.067C733.612 203.067 733.704 203.052 733.789 203.022C733.875 202.992 733.952 202.947 734.018 202.891L734.304 202.642L735.243 203.451L735.782 206.78C735.782 206.792 735.787 206.804 735.789 206.816H734.294C734.108 206.815 733.923 206.846 733.751 206.907C733.578 206.968 733.421 207.058 733.289 207.172C733.157 207.285 733.052 207.42 732.981 207.569C732.909 207.717 732.873 207.877 732.873 208.037V210.142C732.873 210.465 733.022 210.775 733.287 211.003C733.552 211.232 733.911 211.36 734.286 211.361H735.935L739.123 231.32C739.195 231.766 739.452 232.174 739.846 232.471C740.24 232.767 740.744 232.93 741.266 232.932H761.812C762.335 232.93 762.84 232.766 763.234 232.469C763.628 232.172 763.885 231.762 763.956 231.314L767.074 211.361H768.714C769.089 211.36 769.448 211.232 769.713 211.003C769.978 210.775 770.127 210.465 770.127 210.142V208.037C770.127 207.714 769.978 207.404 769.713 207.176C769.448 206.948 769.089 206.819 768.714 206.819H766.402L767.748 205.44L768.035 205.618C768.235 205.744 768.482 205.801 768.727 205.78C768.973 205.759 769.202 205.66 769.369 205.503L770.657 204.3C770.753 204.21 770.826 204.102 770.871 203.986C770.916 203.869 770.932 203.746 770.918 203.624C770.903 203.501 770.859 203.383 770.788 203.277C770.717 203.17 770.621 203.078 770.505 203.006L770.294 202.873L771.327 201.642C771.405 201.549 771.461 201.445 771.492 201.333C771.522 201.222 771.528 201.107 771.507 200.994C771.486 200.881 771.439 200.773 771.37 200.676C771.3 200.578 771.209 200.494 771.102 200.427L769.984 199.728L770.871 198.67L772.026 199.391C772.175 199.485 772.362 199.523 772.544 199.498C772.727 199.472 772.89 199.385 772.998 199.256C773.107 199.127 773.151 198.966 773.122 198.809C773.093 198.651 772.993 198.51 772.843 198.417V198.413ZM750.012 196.432H753.243V197.193C753.244 197.253 753.232 197.312 753.206 197.367C753.18 197.422 753.142 197.473 753.094 197.515C753.046 197.558 752.988 197.591 752.925 197.614C752.861 197.637 752.793 197.649 752.724 197.648H750.533C750.395 197.648 750.262 197.599 750.165 197.514C750.068 197.43 750.014 197.315 750.015 197.196L750.012 196.432ZM746.486 191.897H748.622L748.617 197.19C748.616 197.407 748.665 197.622 748.76 197.824C748.856 198.025 748.996 198.208 749.174 198.362C749.351 198.517 749.562 198.639 749.795 198.723C750.027 198.807 750.277 198.851 750.529 198.852H752.72C752.972 198.851 753.221 198.808 753.453 198.725C753.685 198.642 753.896 198.52 754.073 198.367C754.251 198.213 754.392 198.031 754.488 197.83C754.584 197.63 754.633 197.415 754.633 197.198L754.638 191.904H756.774L756.758 206.819H749.896L746.473 203.868L746.486 191.897ZM733.801 201.369L733.519 201.614L732.773 200.971L735.509 198.615L736.252 199.255L735.407 199.984L733.801 201.369ZM735.65 202.117L735.281 201.798L736.406 200.827L736.776 201.146L737.09 201.417L735.961 202.384L735.65 202.117ZM737.156 206.616L736.65 203.497L738.443 201.95L742.029 202.417C742.637 202.495 743.199 202.739 743.633 203.115L747.93 206.819H737.197C737.179 206.752 737.164 206.684 737.156 206.616ZM762.575 231.154C762.549 231.313 762.458 231.459 762.318 231.564C762.177 231.67 761.998 231.728 761.812 231.729H741.263C741.077 231.728 740.898 231.67 740.758 231.565C740.618 231.46 740.527 231.314 740.501 231.155L737.343 211.361H765.666L762.575 231.154ZM768.732 208.037V210.141C768.732 210.143 768.732 210.145 768.731 210.147C768.73 210.149 768.729 210.151 768.727 210.152C768.726 210.154 768.724 210.155 768.721 210.155C768.719 210.156 768.717 210.157 768.714 210.157H734.286C734.283 210.157 734.281 210.156 734.279 210.155C734.276 210.155 734.274 210.154 734.273 210.152C734.271 210.151 734.27 210.149 734.269 210.147C734.268 210.145 734.268 210.143 734.268 210.141V208.037C734.268 208.035 734.268 208.033 734.269 208.032C734.27 208.03 734.271 208.028 734.273 208.027C734.274 208.025 734.276 208.024 734.279 208.023C734.281 208.022 734.283 208.022 734.286 208.022H768.714C768.719 208.022 768.724 208.024 768.727 208.027C768.731 208.029 768.732 208.033 768.732 208.037V208.037ZM764.579 206.818H758.157V204.357L760.585 200.966L766.614 204.731L764.579 206.818ZM768.575 204.469L760.414 199.372L760.962 198.526L769.336 203.756L768.575 204.469ZM769.165 202.164L767.662 201.224L762.592 198.059L763.399 197.098L769.974 201.203L769.165 202.164Z" fill="#03045E" fill-opacity="0.15"/>
<path d="M742.421 223.553H743.242C743.414 224.043 743.645 224.516 743.93 224.965L743.344 225.47C743.099 225.682 742.962 225.969 742.962 226.268C742.962 226.567 743.099 226.854 743.344 227.066L744.972 228.47C745.093 228.575 745.237 228.658 745.396 228.715C745.555 228.772 745.725 228.801 745.896 228.801C746.068 228.801 746.238 228.772 746.397 228.715C746.556 228.658 746.7 228.575 746.821 228.47L747.419 227.954C747.937 228.194 748.483 228.389 749.047 228.534V229.261C749.047 229.559 749.184 229.846 749.428 230.057C749.672 230.269 750.003 230.389 750.35 230.391H752.65C752.997 230.39 753.33 230.271 753.575 230.059C753.821 229.848 753.959 229.561 753.959 229.261V228.534C754.522 228.39 755.066 228.197 755.584 227.958L756.182 228.473C756.303 228.578 756.447 228.662 756.606 228.718C756.765 228.775 756.935 228.804 757.107 228.804C757.279 228.804 757.449 228.775 757.608 228.718C757.767 228.662 757.911 228.578 758.032 228.473L759.66 227.069C759.905 226.857 760.042 226.57 760.042 226.271C760.042 225.972 759.905 225.685 759.66 225.473L759.07 224.965C759.354 224.516 759.584 224.042 759.755 223.553H760.576C760.923 223.552 761.256 223.433 761.501 223.222C761.746 223.01 761.884 222.723 761.884 222.424V220.438C761.884 220.139 761.746 219.852 761.501 219.641C761.256 219.429 760.923 219.31 760.576 219.31H759.774C759.605 218.813 759.376 218.334 759.092 217.878L759.656 217.393C759.901 217.181 760.038 216.894 760.038 216.595C760.038 216.296 759.901 216.009 759.656 215.797L758.028 214.393C757.907 214.288 757.763 214.204 757.604 214.148C757.445 214.091 757.275 214.062 757.103 214.062C756.931 214.062 756.761 214.091 756.602 214.148C756.443 214.204 756.299 214.288 756.178 214.393L755.624 214.87C755.094 214.62 754.535 214.418 753.956 214.269V213.598C753.956 213.299 753.818 213.012 753.572 212.8C753.327 212.589 752.994 212.47 752.648 212.469H750.347C750 212.47 749.667 212.589 749.422 212.8C749.176 213.012 749.038 213.299 749.038 213.598V214.272C748.459 214.422 747.9 214.623 747.37 214.874L746.818 214.393C746.697 214.288 746.553 214.204 746.394 214.148C746.235 214.091 746.065 214.062 745.893 214.062C745.721 214.062 745.551 214.091 745.392 214.148C745.233 214.204 745.089 214.288 744.968 214.393L743.34 215.797C743.095 216.009 742.958 216.296 742.958 216.595C742.958 216.894 743.095 217.181 743.34 217.393L743.904 217.878C743.62 218.334 743.391 218.813 743.222 219.31H742.42C742.073 219.31 741.74 219.429 741.495 219.641C741.25 219.852 741.112 220.139 741.112 220.438V222.424C741.112 222.724 741.25 223.011 741.495 223.222C741.741 223.434 742.074 223.553 742.421 223.553ZM742.507 220.513H743.284C743.569 220.513 743.845 220.434 744.073 220.286C744.3 220.139 744.466 219.932 744.545 219.697C744.694 219.247 744.9 218.813 745.161 218.403C745.294 218.19 745.344 217.945 745.304 217.705C745.264 217.465 745.135 217.242 744.937 217.07L744.389 216.598L745.894 215.299L746.433 215.764C746.633 215.936 746.893 216.048 747.174 216.082C747.454 216.116 747.74 216.071 747.988 215.953C748.463 215.724 748.968 215.543 749.491 215.413C749.764 215.343 750.003 215.199 750.173 215.002C750.343 214.806 750.435 214.567 750.435 214.321V213.673H752.565V214.32C752.565 214.566 752.657 214.805 752.827 215.001C752.997 215.198 753.236 215.342 753.509 215.412C754.032 215.542 754.537 215.724 755.012 215.953C755.261 216.07 755.546 216.115 755.827 216.081C756.107 216.046 756.367 215.934 756.567 215.762L757.106 215.297L758.611 216.595L758.063 217.069C757.864 217.241 757.735 217.464 757.694 217.704C757.654 217.945 757.704 218.19 757.838 218.404C758.099 218.814 758.306 219.248 758.455 219.697C758.534 219.933 758.7 220.14 758.927 220.287C759.155 220.434 759.431 220.514 759.716 220.514H760.493V222.35H759.696C759.413 222.351 759.138 222.429 758.911 222.575C758.684 222.721 758.518 222.925 758.437 223.159C758.286 223.603 758.079 224.031 757.818 224.435C757.682 224.649 757.63 224.896 757.669 225.138C757.709 225.38 757.839 225.604 758.039 225.777L758.609 226.269L757.104 227.568L756.525 227.068C756.326 226.896 756.067 226.784 755.788 226.749C755.509 226.714 755.224 226.758 754.976 226.874C754.509 227.096 754.014 227.272 753.501 227.399C753.23 227.468 752.993 227.611 752.823 227.806C752.654 228.001 752.563 228.238 752.563 228.482V229.188H750.435V228.479C750.435 228.235 750.344 227.998 750.175 227.803C750.005 227.607 749.768 227.465 749.497 227.396C748.984 227.268 748.489 227.092 748.022 226.871C747.774 226.755 747.489 226.711 747.21 226.746C746.931 226.781 746.672 226.893 746.473 227.065L745.894 227.564L744.389 226.266L744.959 225.774C745.159 225.601 745.289 225.377 745.329 225.135C745.368 224.893 745.316 224.647 745.18 224.433C744.919 224.028 744.712 223.6 744.561 223.156C744.48 222.923 744.314 222.718 744.087 222.572C743.86 222.427 743.585 222.348 743.302 222.348H742.505L742.507 220.513Z" fill="#03045E" fill-opacity="0.15"/>
<path d="M746.061 223.344C746.084 223.344 746.108 223.344 746.132 223.344L746.814 223.272C747.133 224.05 747.701 224.734 748.452 225.243C749.204 225.753 750.109 226.067 751.06 226.15C751.225 226.164 751.391 226.171 751.558 226.171C752.475 226.172 753.376 225.955 754.159 225.542C754.943 225.13 755.579 224.539 755.997 223.834C756.076 223.693 756.088 223.531 756.031 223.383C755.973 223.234 755.851 223.111 755.69 223.039C755.528 222.967 755.341 222.952 755.167 222.997C754.993 223.043 754.847 223.145 754.759 223.282C754.446 223.803 753.97 224.237 753.384 224.535C752.798 224.833 752.127 224.982 751.447 224.966C750.768 224.949 750.107 224.768 749.541 224.442C748.976 224.116 748.528 223.66 748.25 223.125L748.979 223.049C749.097 223.037 749.209 222.994 749.299 222.927C749.39 222.859 749.455 222.77 749.486 222.671C749.517 222.571 749.512 222.466 749.473 222.369C749.434 222.271 749.362 222.186 749.267 222.124L747.678 221.101C747.555 221.021 747.401 220.986 747.248 221.002C747.095 221.018 746.956 221.084 746.858 221.187L745.6 222.505C745.53 222.581 745.485 222.672 745.472 222.768C745.459 222.864 745.478 222.962 745.526 223.049C745.574 223.137 745.65 223.211 745.744 223.263C745.839 223.315 745.949 223.343 746.061 223.344Z" fill="#03045E" fill-opacity="0.15"/>
<path d="M747.282 219.648C747.441 219.729 747.631 219.753 747.81 219.713C747.988 219.673 748.142 219.573 748.236 219.436C748.581 218.929 749.085 218.517 749.69 218.247C750.295 217.976 750.976 217.859 751.655 217.908C752.334 217.957 752.984 218.171 753.528 218.524C754.072 218.878 754.49 219.357 754.732 219.906L754.066 219.975C753.947 219.987 753.836 220.03 753.746 220.097C753.655 220.165 753.591 220.254 753.56 220.354C753.529 220.453 753.533 220.558 753.572 220.656C753.612 220.753 753.683 220.838 753.779 220.9L755.316 221.893C755.439 221.973 755.593 222.008 755.746 221.992C755.899 221.976 756.038 221.91 756.136 221.807L757.357 220.528C757.433 220.448 757.479 220.351 757.491 220.248C757.502 220.146 757.477 220.043 757.42 219.952C757.362 219.862 757.275 219.788 757.169 219.741C757.063 219.694 756.943 219.676 756.824 219.688L756.147 219.758C755.866 218.954 755.319 218.238 754.573 217.698C753.828 217.157 752.916 216.816 751.949 216.716C750.982 216.615 750.002 216.76 749.13 217.133C748.257 217.505 747.529 218.089 747.035 218.813C746.986 218.882 746.954 218.958 746.94 219.037C746.926 219.117 746.931 219.198 746.954 219.276C746.977 219.354 747.018 219.427 747.074 219.491C747.13 219.555 747.201 219.608 747.282 219.648Z" fill="#03045E" fill-opacity="0.15"/>
<g clip-path="url(#clip8_17_2983)">
<path d="M948.438 175.969C948.27 175.961 948.098 175.977 947.938 176C947.266 176.094 946.688 176.422 946.281 177.031L946.25 177.094L946.219 177.125L937.656 193.219C936.691 192.859 935.734 192.648 934.844 192.625C933.883 192.602 932.977 192.75 932.156 193.094C930.574 193.754 929.379 195.047 928.594 196.688C928.559 196.738 928.527 196.789 928.5 196.844C928.496 196.852 928.504 196.867 928.5 196.875C928.488 196.895 928.477 196.918 928.469 196.938C928.457 196.977 928.445 197.02 928.438 197.063C927.895 198.418 927.27 199.637 926.562 200.719C926.555 200.73 926.539 200.738 926.531 200.75C926.441 200.828 926.367 200.926 926.312 201.031C926.309 201.039 926.316 201.055 926.312 201.063C926.277 201.113 926.246 201.164 926.219 201.219C923.832 204.637 920.723 206.695 917.781 207.969C913.773 209.703 909.938 209.887 909.094 209.813C908.691 209.773 908.305 209.977 908.113 210.332C907.926 210.688 907.965 211.125 908.219 211.438C919.613 225.5 936.375 226 936.375 226C936.574 226.004 936.77 225.949 936.938 225.844C936.938 225.844 939.008 224.531 941.5 221.406C943.371 219.059 945.504 215.664 947.344 210.969C947.355 210.957 947.363 210.949 947.375 210.938C947.605 210.723 947.723 210.41 947.688 210.094C947.688 210.082 947.688 210.074 947.688 210.063C948.172 208.754 948.641 207.379 949.062 205.875C949.078 205.813 949.09 205.75 949.094 205.688C949.094 205.676 949.094 205.668 949.094 205.656C950.426 202.219 948.941 198.434 945.75 196.781L951.938 179.625V179.594L951.969 179.563C952.172 178.852 951.938 178.168 951.562 177.625C951.207 177.113 950.688 176.711 950.062 176.438V176.406C950.043 176.398 950.02 176.414 950 176.406C949.988 176.402 949.98 176.379 949.969 176.375C949.48 176.145 948.945 175.988 948.438 175.969ZM948.312 178.063C948.539 178.027 948.836 178.027 949.156 178.188L949.188 178.219H949.219C949.543 178.348 949.812 178.566 949.938 178.75C950.062 178.934 950.027 179.043 950.031 179.031L943.938 195.938C943.203 195.605 942.695 195.371 941.656 194.906C940.883 194.559 940.148 194.223 939.5 193.938L947.938 178.156C947.93 178.164 948.086 178.098 948.312 178.063ZM906 184C903.801 184 902 185.801 902 188C902 190.199 903.801 192 906 192C908.199 192 910 190.199 910 188C910 185.801 908.199 184 906 184ZM906 186C907.117 186 908 186.883 908 188C908 189.117 907.117 190 906 190C904.883 190 904 189.117 904 188C904 186.883 904.883 186 906 186ZM915 187C913.895 187 913 187.895 913 189C913 190.105 913.895 191 915 191C916.105 191 917 190.105 917 189C917 187.895 916.105 187 915 187ZM913.5 194C910.473 194 908 196.473 908 199.5C908 202.527 910.473 205 913.5 205C916.527 205 919 202.527 919 199.5C919 196.473 916.527 194 913.5 194ZM934.812 194.625C935.508 194.645 936.27 194.785 937.125 195.125C937.145 195.137 937.168 195.148 937.188 195.156C937.414 195.512 937.84 195.688 938.25 195.594C938.363 195.641 938.352 195.637 938.469 195.688C939.145 195.98 939.996 196.34 940.844 196.719C942.086 197.273 942.871 197.613 943.594 197.938C943.613 197.961 943.633 197.98 943.656 198C943.871 198.297 944.23 198.453 944.594 198.406C944.605 198.406 944.613 198.406 944.625 198.406C947.016 199.5 948.07 202.105 947.25 204.625C946.855 204.613 946.555 204.633 945.812 204.469C945.258 204.348 944.719 204.152 944.312 203.906C943.906 203.66 943.672 203.418 943.562 203.094C943.477 202.813 943.27 202.586 942.996 202.473C942.727 202.355 942.418 202.367 942.156 202.5C941.82 202.668 940.973 202.605 940.219 202.219C939.844 202.027 939.508 201.758 939.281 201.531C939.055 201.305 938.992 201.09 939 201.125C938.945 200.832 938.766 200.578 938.504 200.434C938.246 200.289 937.934 200.27 937.656 200.375C937.629 200.387 937.297 200.418 936.906 200.344C936.516 200.27 936.062 200.109 935.625 199.906C935.188 199.703 934.785 199.457 934.531 199.25C934.277 199.043 934.254 198.828 934.281 199.094C934.215 198.566 933.75 198.18 933.219 198.219C932.215 198.313 931.273 197.574 930.719 197.094C931.305 196.105 932.031 195.316 932.938 194.938C933.492 194.707 934.117 194.605 934.812 194.625ZM913.5 196C915.445 196 917 197.555 917 199.5C917 201.445 915.445 203 913.5 203C911.555 203 910 201.445 910 199.5C910 197.555 911.555 196 913.5 196ZM929.812 198.969C930.508 199.469 931.473 199.988 932.625 200.094C932.809 200.363 933.008 200.582 933.25 200.781C933.684 201.141 934.219 201.457 934.781 201.719C935.344 201.98 935.934 202.199 936.531 202.313C936.84 202.371 937.156 202.254 937.469 202.25C937.617 202.477 937.684 202.777 937.875 202.969C938.281 203.375 938.766 203.719 939.312 204C940.125 204.418 941.102 204.563 942.062 204.438C942.391 204.93 942.785 205.344 943.25 205.625C943.934 206.035 944.68 206.285 945.375 206.438C945.863 206.543 946.309 206.59 946.719 206.625C946.441 207.523 946.141 208.367 945.844 209.188C945.484 209.176 945.043 209.156 944.562 209.063C943.469 208.852 942.434 208.367 942 207.531C941.766 207.094 941.246 206.895 940.781 207.063C940.285 207.238 939.387 207.164 938.625 206.813C937.863 206.461 937.285 205.852 937.156 205.406C937.074 205.137 936.879 204.914 936.621 204.797C936.367 204.676 936.074 204.672 935.812 204.781C935.57 204.883 934.625 204.855 933.844 204.5C933.062 204.145 932.559 203.547 932.5 203.219C932.449 202.941 932.285 202.703 932.047 202.555C931.809 202.406 931.52 202.363 931.25 202.438C930.305 202.691 929.566 202.355 928.969 201.906C928.762 201.754 928.609 201.586 928.469 201.438C928.953 200.668 929.402 199.852 929.812 198.969ZM927.312 203.094C927.461 203.23 927.602 203.363 927.781 203.5C928.52 204.055 929.656 204.449 930.938 204.375C931.402 205.246 932.156 205.914 933.031 206.313C933.895 206.707 934.816 206.832 935.719 206.719C936.219 207.535 936.914 208.227 937.781 208.625C938.707 209.051 939.746 209.16 940.75 209C941.684 210.168 943.012 210.805 944.188 211.031C944.5 211.09 944.809 211.129 945.094 211.156C943.43 215.176 941.566 218.117 939.938 220.156C937.852 222.77 936.441 223.758 936.125 223.969C935.77 223.953 933.164 223.77 929.5 222.75C929.801 222.555 930.125 222.352 930.469 222.094C932.137 220.844 934.32 218.805 936.438 215.656C936.66 215.332 936.676 214.91 936.473 214.574C936.27 214.234 935.891 214.047 935.5 214.094C935.207 214.125 934.945 214.285 934.781 214.531C932.797 217.484 930.754 219.375 929.25 220.5C927.82 221.57 926.992 221.902 926.906 221.938C924.656 221.145 922.164 220.059 919.625 218.531C919.992 218.41 920.383 218.25 920.812 218.063C922.711 217.234 925.25 215.688 927.844 212.781C928.156 212.469 928.227 211.988 928.02 211.602C927.809 211.211 927.371 211.004 926.938 211.094C926.707 211.133 926.496 211.258 926.344 211.438C923.938 214.129 921.684 215.496 920.031 216.219C918.379 216.941 917.438 217 917.438 217C917.395 217.008 917.352 217.02 917.312 217.031C915.238 215.57 913.168 213.793 911.219 211.656C913.121 211.508 915.57 211.121 918.594 209.813C921.578 208.52 924.762 206.41 927.312 203.094Z" fill="#03045E" fill-opacity="0.15"/>
</g>
<path d="M80.0248 315.169H76.8392V290.158C76.8392 280.145 66.3694 272 53.5 272C48.5988 272 43.9079 273.169 39.9343 275.38C39.4947 275.625 39.3904 276.104 39.7015 276.45C40.0126 276.796 40.621 276.878 41.0608 276.633C44.7031 274.606 49.0044 273.534 53.5 273.534C65.2939 273.534 74.8889 280.991 74.8889 290.158V315.169H32.1111V290.158C32.1111 285.932 34.1529 281.905 37.8601 278.818C38.23 278.51 38.2125 278.025 37.8209 277.734C37.4294 277.442 36.8123 277.456 36.4423 277.764C32.3916 281.138 30.1608 285.539 30.1608 290.158V315.169H26.9752C26.4367 315.169 26 315.512 26 315.936V320.233C26 320.657 26.4366 321 26.9752 321H67.5425C68.081 321 68.5177 320.657 68.5177 320.233C68.5177 319.809 68.0811 319.466 67.5425 319.466H27.9503V316.704H79.0496V319.466H72.7435C72.205 319.466 71.7682 319.809 71.7682 320.233C71.7682 320.657 72.2048 321 72.7435 321H80.0248C80.5633 321 81 320.657 81 320.233V315.936C81 315.512 80.5634 315.169 80.0248 315.169Z" fill="#03045E" fill-opacity="0.15"/>
<path d="M53.5 275.069C42.7815 275.069 34.0614 281.838 34.0614 290.158C34.0614 290.581 34.498 290.925 35.0366 290.925H71.9634C72.5019 290.925 72.9386 290.581 72.9386 290.158C72.9386 281.838 64.2185 275.069 53.5 275.069ZM36.0394 289.39C36.5541 282.272 44.1891 276.603 53.5 276.603C62.8109 276.603 70.4459 282.272 70.9605 289.39H36.0394Z" fill="#03045E" fill-opacity="0.15"/>
<path d="M71.9634 292.664H56.1005C55.562 292.664 55.1253 293.007 55.1253 293.431V312.867C55.1253 313.291 55.5619 313.635 56.1005 313.635H71.9634C72.5019 313.635 72.9386 313.291 72.9386 312.867V293.431C72.9386 293.007 72.5019 292.664 71.9634 292.664ZM70.9882 312.1H57.0757V294.198H70.9883V312.1H70.9882Z" fill="#03045E" fill-opacity="0.15"/>
<path d="M50.8995 292.664H35.0366C34.4981 292.664 34.0614 293.007 34.0614 293.431V312.867C34.0614 313.291 34.498 313.635 35.0366 313.635H50.8995C51.438 313.635 51.8747 313.291 51.8747 312.867V293.431C51.8747 293.007 51.438 292.664 50.8995 292.664ZM49.9243 312.1H36.0118V294.198H49.9244V312.1H49.9243Z" fill="#03045E" fill-opacity="0.15"/>
<path d="M61.0808 280.613C60.7001 280.314 60.0825 280.314 59.7017 280.613L52.6805 286.137C52.2996 286.437 52.2996 286.922 52.6805 287.222C52.8709 287.372 53.1205 287.447 53.37 287.447C53.6194 287.447 53.8692 287.372 54.0594 287.222L61.0807 281.698C61.4615 281.398 61.4615 280.913 61.0808 280.613Z" fill="#03045E" fill-opacity="0.15"/>
<path d="M54.3195 280.613C53.9386 280.313 53.3212 280.313 52.9404 280.613L45.9192 286.137C45.5383 286.437 45.5383 286.922 45.9192 287.222C46.1096 287.372 46.3592 287.447 46.6087 287.447C46.8582 287.447 47.1079 287.372 47.2981 287.222L54.3194 281.698C54.7004 281.398 54.7004 280.913 54.3195 280.613Z" fill="#03045E" fill-opacity="0.15"/>
<path d="M69.0122 299.845C68.6313 299.545 68.0138 299.545 67.6331 299.845L63.4723 303.118C63.0914 303.418 63.0914 303.904 63.4723 304.203C63.848 304.499 64.4757 304.499 64.8514 304.203L69.0122 300.93C69.393 300.63 69.393 300.144 69.0122 299.845Z" fill="#03045E" fill-opacity="0.15"/>
<path d="M64.3314 299.845C63.9505 299.545 63.3331 299.545 62.9523 299.845L58.7915 303.118C58.1908 303.591 58.628 304.428 59.481 304.428C59.7305 304.428 59.9801 304.353 60.1705 304.203L64.3313 300.93C64.7122 300.63 64.7122 300.144 64.3314 299.845Z" fill="#03045E" fill-opacity="0.15"/>
<path d="M47.6884 299.845C47.3075 299.545 46.69 299.545 46.3093 299.845L42.1485 303.118C41.7676 303.418 41.7676 303.904 42.1485 304.203C42.5243 304.499 43.1519 304.499 43.5276 304.203L47.6884 300.93C48.0691 300.63 48.0691 300.144 47.6884 299.845Z" fill="#03045E" fill-opacity="0.15"/>
<path d="M43.0075 299.845C42.6267 299.545 42.0092 299.545 41.6285 299.845L37.4677 303.118C36.867 303.591 37.3042 304.428 38.1571 304.428C38.4066 304.428 38.6564 304.353 38.8466 304.203L43.0074 300.93C43.3883 300.63 43.3883 300.144 43.0075 299.845Z" fill="#03045E" fill-opacity="0.15"/>
<path d="M181.568 372.435H176.26C175.614 372.436 174.994 372.674 174.537 373.096C174.08 373.518 173.824 374.09 173.824 374.687V386.138H164.401C164.063 385.931 163.715 385.735 163.36 385.551V374.687C163.36 374.09 163.103 373.518 162.647 373.096C162.19 372.674 161.57 372.436 160.923 372.435H155.615C154.968 372.436 154.349 372.674 153.892 373.096C153.435 373.518 153.178 374.09 153.178 374.687V383.768C152.01 383.912 150.862 384.172 149.754 384.542C149.572 383.144 148.999 381.813 148.09 380.681L142.622 373.836V371.256H144.354C144.471 371.256 144.587 371.235 144.695 371.194C144.803 371.152 144.901 371.092 144.983 371.016C145.066 370.939 145.132 370.849 145.176 370.749C145.221 370.65 145.244 370.543 145.244 370.435V367.268C145.244 366.667 144.985 366.09 144.523 365.665C144.062 365.239 143.437 365 142.785 365H134.164C133.512 365.001 132.888 365.24 132.427 365.665C131.966 366.09 131.707 366.666 131.707 367.267V370.434C131.707 370.652 131.8 370.861 131.967 371.014C132.134 371.168 132.361 371.255 132.597 371.255H134.17V374.079L128.792 380.647C127.633 382.068 127.005 383.796 127 385.573V418.323C127.002 419.563 127.537 420.751 128.487 421.628C129.438 422.505 130.727 422.998 132.072 423H144.749C146.094 422.998 147.383 422.505 148.334 421.628C149.285 420.751 149.819 419.563 149.821 418.323V413.108C150.908 413.468 152.034 413.72 153.178 413.861V419.21C153.178 420.214 153.609 421.176 154.377 421.886C155.145 422.597 156.187 422.997 157.275 423H179.905C180.993 422.997 182.035 422.597 182.802 421.886C183.57 421.176 184.001 420.213 184 419.21V374.687C184 374.091 183.745 373.52 183.289 373.097C182.833 372.675 182.214 372.437 181.568 372.435ZM173.811 387.78C173.755 388.23 173.523 388.646 173.156 388.949C172.79 389.252 172.316 389.42 171.825 389.422H168.276C167.778 388.839 167.235 388.29 166.65 387.78H173.811ZM170.042 398.815C170.042 401.493 169.181 404.11 167.568 406.336C165.955 408.562 163.663 410.297 160.981 411.322C158.299 412.347 155.348 412.615 152.501 412.093C149.653 411.571 147.038 410.281 144.985 408.388C142.932 406.495 141.534 404.084 140.967 401.458C140.401 398.832 140.691 396.11 141.802 393.636C142.912 391.163 144.793 389.048 147.207 387.56C149.62 386.073 152.458 385.278 155.361 385.278C159.252 385.282 162.983 386.709 165.735 389.247C168.487 391.785 170.035 395.226 170.039 398.815H170.042ZM154.961 377H158.777C159.013 377 159.239 376.913 159.406 376.759C159.573 376.605 159.667 376.396 159.667 376.179C159.667 375.961 159.573 375.752 159.406 375.598C159.239 375.444 159.013 375.358 158.777 375.358H154.961V374.687C154.961 374.526 155.03 374.371 155.153 374.257C155.276 374.143 155.443 374.078 155.618 374.077H160.926C161.1 374.078 161.268 374.143 161.391 374.257C161.514 374.371 161.582 374.526 161.582 374.687V384.762C159.609 384.016 157.496 383.634 155.363 383.636C155.228 383.636 155.095 383.636 154.961 383.636V377ZM133.487 369.615V367.27C133.487 367.104 133.558 366.945 133.686 366.827C133.813 366.71 133.985 366.644 134.165 366.644H142.786C142.966 366.644 143.138 366.71 143.265 366.827C143.392 366.945 143.464 367.104 143.464 367.27V369.615H133.487ZM140.841 371.257V372.835H135.95V371.257H140.841ZM148.042 418.323C148.041 419.127 147.694 419.899 147.077 420.468C146.46 421.037 145.623 421.357 144.751 421.358H144.106L145.333 419.465C145.444 419.279 145.472 419.06 145.411 418.856C145.351 418.651 145.207 418.476 145.01 418.367C144.812 418.258 144.577 418.223 144.353 418.271C144.129 418.318 143.933 418.444 143.807 418.622L142.027 421.358H139.534V419.043C139.534 418.825 139.44 418.616 139.273 418.462C139.106 418.308 138.88 418.222 138.644 418.222C138.408 418.222 138.181 418.308 138.014 418.462C137.847 418.616 137.754 418.825 137.754 419.043V421.358H135.267L133.487 418.622C133.43 418.525 133.351 418.439 133.257 418.371C133.163 418.302 133.055 418.252 132.939 418.223C132.824 418.194 132.703 418.187 132.584 418.202C132.465 418.217 132.351 418.254 132.248 418.311C132.146 418.368 132.056 418.443 131.986 418.533C131.915 418.622 131.865 418.724 131.838 418.832C131.812 418.939 131.809 419.051 131.83 419.16C131.851 419.269 131.895 419.372 131.961 419.465L133.188 421.358H132.069C131.197 421.356 130.362 421.036 129.745 420.467C129.129 419.898 128.783 419.127 128.782 418.323V405.023H136.738C136.974 405.023 137.2 404.937 137.367 404.783C137.534 404.629 137.628 404.42 137.628 404.202C137.628 403.985 137.534 403.776 137.367 403.622C137.2 403.468 136.974 403.381 136.738 403.381H128.782V397.09H136.738C136.974 397.09 137.2 397.003 137.367 396.849C137.534 396.696 137.628 396.487 137.628 396.269C137.628 396.051 137.534 395.842 137.367 395.688C137.2 395.534 136.974 395.448 136.738 395.448H128.782V385.579C128.785 384.158 129.287 382.775 130.214 381.638L136.076 374.477H140.923L146.657 381.653C147.491 382.691 147.97 383.935 148.032 385.226C145.289 386.484 142.981 388.422 141.368 390.824C139.755 393.225 138.901 395.995 138.902 398.82C138.903 401.645 139.759 404.413 141.373 406.814C142.988 409.215 145.297 411.152 148.041 412.408L148.042 418.323ZM179.905 421.358H157.268C156.679 421.356 156.113 421.147 155.684 420.774C155.255 420.401 154.997 419.891 154.96 419.349H182.216C182.18 419.892 181.921 420.402 181.491 420.775C181.062 421.148 180.495 421.357 179.905 421.358ZM182.22 417.707H154.959V413.991C155.086 413.991 155.226 413.991 155.361 413.991C158.267 413.992 161.122 413.282 163.635 411.935C166.148 410.587 168.228 408.65 169.666 406.32C171.103 403.989 171.845 401.35 171.816 398.669C171.788 395.989 170.99 393.363 169.504 391.059H171.822C172.826 391.057 173.788 390.687 174.497 390.031C175.206 389.375 175.604 388.486 175.604 387.56V377.004H179.419C179.655 377.004 179.882 376.918 180.049 376.764C180.216 376.61 180.309 376.401 180.309 376.183C180.309 375.966 180.216 375.757 180.049 375.603C179.882 375.449 179.655 375.362 179.419 375.362H175.604V374.687C175.604 374.526 175.673 374.371 175.796 374.257C175.919 374.143 176.086 374.078 176.26 374.077H181.568C181.743 374.078 181.91 374.143 182.033 374.257C182.155 374.371 182.224 374.526 182.223 374.687L182.22 417.707Z" fill="#03045E" fill-opacity="0.15"/>
<path d="M152.807 391.026V396.22H150.086C149.579 396.219 149.089 396.391 148.711 396.703C148.333 397.014 148.093 397.443 148.036 397.907L147.763 400.136L147.592 401.543C147.486 402.41 147.022 403.26 146.213 404.073C146.001 404.286 145.86 404.551 145.809 404.837C145.757 405.122 145.796 405.415 145.922 405.68C146.048 405.945 146.255 406.17 146.517 406.328C146.779 406.487 147.086 406.571 147.4 406.572H161.007C161.322 406.572 161.635 406.513 161.924 406.397C162.213 406.282 162.473 406.112 162.688 405.899C162.903 405.687 163.068 405.435 163.173 405.161C163.277 404.887 163.319 404.596 163.296 404.306L162.971 400.186L162.798 397.988C162.757 397.511 162.523 397.064 162.142 396.738C161.761 396.412 161.261 396.231 160.741 396.229H158.058V391.026C158.066 390.704 158.004 390.383 157.875 390.083C157.747 389.783 157.554 389.51 157.31 389.279C157.065 389.049 156.773 388.865 156.451 388.74C156.129 388.615 155.782 388.551 155.433 388.551C155.083 388.551 154.737 388.615 154.414 388.74C154.092 388.865 153.8 389.049 153.555 389.279C153.311 389.51 153.119 389.783 152.99 390.083C152.862 390.383 152.799 390.704 152.807 391.026ZM161.641 404.41C161.647 404.491 161.636 404.572 161.607 404.648C161.578 404.724 161.532 404.794 161.472 404.854C161.413 404.913 161.34 404.96 161.26 404.992C161.179 405.025 161.092 405.041 161.005 405.041H159.821L159.663 403.303C159.645 403.101 159.54 402.913 159.372 402.782C159.204 402.651 158.986 402.587 158.767 402.604C158.548 402.621 158.345 402.718 158.203 402.873C158.061 403.028 157.991 403.228 158.01 403.431L158.159 405.041H155.947V403.367C155.947 403.165 155.86 402.971 155.705 402.828C155.55 402.685 155.34 402.605 155.12 402.605C154.901 402.605 154.691 402.685 154.536 402.828C154.381 402.971 154.294 403.165 154.294 403.367V405.041H152.08L152.227 403.435C152.246 403.233 152.176 403.032 152.034 402.877C151.892 402.722 151.689 402.626 151.47 402.609C151.251 402.592 151.033 402.656 150.865 402.787C150.697 402.918 150.592 403.105 150.574 403.307L150.416 405.046H147.489C148.506 404.006 149.091 402.886 149.235 401.713L149.324 400.986L161.371 401.002L161.641 404.41ZM160.735 397.744C160.839 397.745 160.938 397.781 161.014 397.847C161.089 397.912 161.135 398.001 161.142 398.096L161.251 399.474L149.511 399.458L149.679 398.079C149.69 397.987 149.738 397.901 149.813 397.84C149.888 397.778 149.985 397.744 150.086 397.744H160.735ZM154.46 391.026C154.456 390.906 154.477 390.786 154.524 390.673C154.571 390.56 154.642 390.458 154.732 390.371C154.823 390.284 154.932 390.215 155.052 390.168C155.172 390.121 155.302 390.097 155.433 390.097C155.563 390.097 155.693 390.121 155.813 390.168C155.933 390.215 156.042 390.284 156.133 390.371C156.224 390.458 156.294 390.56 156.341 390.673C156.388 390.786 156.41 390.906 156.405 391.026V395.968H154.46V391.026Z" fill="#03045E" fill-opacity="0.15"/>
<defs>
<clipPath id="clip0_17_2983">
<rect width="124" height="118" fill="white" transform="translate(376 329)"/>
</clipPath>
<clipPath id="clip1_17_2983">
<rect width="111" height="103" fill="white" transform="translate(106 252)"/>
</clipPath>
<clipPath id="clip2_17_2983">
<rect width="85" height="78" fill="white" transform="translate(458 151)"/>
</clipPath>
<clipPath id="clip3_17_2983">
<rect width="84" height="76" fill="white" transform="translate(0 347)"/>
</clipPath>
<clipPath id="clip4_17_2983">
<rect width="93" height="67" fill="white" transform="translate(305 162)"/>
</clipPath>
<clipPath id="clip5_17_2983">
<rect width="91" height="96" fill="white" transform="translate(621 133)"/>
</clipPath>
<clipPath id="clip6_17_2983">
<rect width="100" height="92" fill="white" transform="translate(952 347)"/>
</clipPath>
<clipPath id="clip7_17_2983">
<rect width="124" height="117" fill="white" transform="translate(540 256)"/>
</clipPath>
<clipPath id="clip8_17_2983">
<rect width="50" height="50" fill="white" transform="translate(902 176)"/>
</clipPath>
</defs>
</svg>
